<svg id="Capa_1" enable-background="new 0 0 510 510" height="512" viewBox="0 0 510 510" width="512" xmlns="http://www.w3.org/2000/svg" xmlns:xlink="http://www.w3.org/1999/xlink"><radialGradient id="SVGID_1_" cx="255" cy="198.919" gradientUnits="userSpaceOnUse" r="209.647"><stop offset="0" stop-color="#ffffa3"/><stop offset=".3843" stop-color="#fffea1"/><stop offset=".5612" stop-color="#fffb99"/><stop offset=".6956" stop-color="#fff68d"/><stop offset=".8086" stop-color="#ffef7a"/><stop offset=".907" stop-color="#ffe563"/><stop offset=".9958" stop-color="#ffda47"/><stop offset="1" stop-color="#ffd945"/></radialGradient><linearGradient id="lg1"><stop offset="0" stop-color="#ff819c"/><stop offset=".2026" stop-color="#ff7c9a"/><stop offset=".4565" stop-color="#fd6c93"/><stop offset=".7364" stop-color="#fb5387"/><stop offset="1" stop-color="#f83479"/></linearGradient><linearGradient id="SVGID_2_" gradientTransform="matrix(.393 -.92 .92 .393 2597.428 -2782.149)" gradientUnits="userSpaceOnUse" x1="-3650.691" x2="-3607.921" xlink:href="#lg1" y1="-1061.636" y2="-1049.461"/><linearGradient id="lg2"><stop offset="0" stop-color="#fff" stop-opacity="0"/><stop offset="1" stop-color="#fff"/></linearGradient><linearGradient id="SVGID_3_" gradientTransform="matrix(.393 -.92 .92 .393 2597.428 -2782.149)" gradientUnits="userSpaceOnUse" x1="-3610.477" x2="-3691.333" xlink:href="#lg2" y1="-1049.026" y2="-1081.181"/><linearGradient id="SVGID_4_" gradientTransform="matrix(.712 -.702 .702 .712 2124.371 -1533.561)" gradientUnits="userSpaceOnUse" x1="-2546.903" x2="-2504.133" xlink:href="#lg1" y1="-171.056" y2="-158.881"/><linearGradient id="SVGID_5_" gradientTransform="matrix(.712 -.702 .702 .712 2124.371 -1533.561)" gradientUnits="userSpaceOnUse" x1="-2506.688" x2="-2587.544" xlink:href="#lg2" y1="-158.446" y2="-190.601"/><linearGradient id="SVGID_6_" gradientTransform="matrix(.925 -.379 .379 .925 1213.199 -557.589)" gradientUnits="userSpaceOnUse" x1="-1187.851" x2="-1145.082" xlink:href="#lg1" y1="234.481" y2="246.656"/><linearGradient id="SVGID_7_" gradientTransform="matrix(.925 -.379 .379 .925 1213.199 -557.589)" gradientUnits="userSpaceOnUse" x1="-1147.637" x2="-1228.493" xlink:href="#lg2" y1="247.091" y2="214.936"/><linearGradient id="SVGID_8_" gradientTransform="matrix(-.393 -.92 -.92 .393 -4407.836 -2782.149)" gradientUnits="userSpaceOnUse" x1="-4562.973" x2="-4520.204" xlink:href="#lg1" y1="-3195.186" y2="-3183.011"/><linearGradient id="SVGID_9_" gradientTransform="matrix(-.393 -.92 -.92 .393 -4407.836 -2782.149)" gradientUnits="userSpaceOnUse" x1="-4522.759" x2="-4603.615" xlink:href="#lg2" y1="-3182.576" y2="-3214.731"/><linearGradient id="lg3"><stop offset="0" stop-color="#f82814" stop-opacity="0"/><stop offset="1" stop-color="#c0272d"/></linearGradient><linearGradient id="SVGID_10_" gradientUnits="userSpaceOnUse" x1="316.236" x2="282.52" xlink:href="#lg3" y1="149.363" y2="126.885"/><linearGradient id="SVGID_11_" gradientTransform="matrix(-.712 -.702 -.702 .712 -3934.779 -1533.561)" gradientUnits="userSpaceOnUse" x1="-4200.061" x2="-4157.292" xlink:href="#lg1" y1="-1799.357" y2="-1787.182"/><linearGradient id="SVGID_12_" gradientTransform="matrix(-.712 -.702 -.702 .712 -3934.779 -1533.561)" gradientUnits="userSpaceOnUse" x1="-4159.846" x2="-4240.702" xlink:href="#lg2" y1="-1786.747" y2="-1818.902"/><linearGradient id="SVGID_13_" gradientUnits="userSpaceOnUse" x1="305.555" x2="259.429" xlink:href="#lg3" y1="130.443" y2="114.054"/><linearGradient id="SVGID_14_" gradientTransform="matrix(-.925 -.379 -.379 .925 -3023.607 -557.589)" gradientUnits="userSpaceOnUse" x1="-3334.977" x2="-3292.208" xlink:href="#lg1" y1="-645.375" y2="-633.2"/><linearGradient id="SVGID_15_" gradientTransform="matrix(-.925 -.379 -.379 .925 -3023.607 -557.589)" gradientUnits="userSpaceOnUse" x1="-3294.763" x2="-3375.619" xlink:href="#lg2" y1="-632.765" y2="-664.92"/><linearGradient id="SVGID_16_" gradientUnits="userSpaceOnUse" x1="286.473" x2="250.883" xlink:href="#lg3" y1="118.26" y2="115.685"/><linearGradient id="SVGID_17_" gradientUnits="userSpaceOnUse" x1="222.842" x2="270.591" xlink:href="#lg1" y1="79.059" y2="92.652"/><linearGradient id="SVGID_18_" gradientUnits="userSpaceOnUse" x1="267.728" x2="166.822" xlink:href="#lg2" y1="93.177" y2="53.049"/><linearGradient id="lg4"><stop offset="0" stop-color="#ffdecf"/><stop offset="1" stop-color="#faa68e"/></linearGradient><linearGradient id="SVGID_19_" gradientTransform="matrix(-.979 -.203 .203 -.979 -1611.565 -2139.071)" gradientUnits="userSpaceOnUse" x1="-2159.09" x2="-2161.062" xlink:href="#lg4" y1="-2005.037" y2="-1994.945"/><linearGradient id="SVGID_20_" gradientTransform="matrix(-1 .018 -.018 -1 -2038.308 -1978.649)" gradientUnits="userSpaceOnUse" x1="-2089.309" x2="-2098.634" xlink:href="#lg4" y1="-2274.185" y2="-2264.86"/><linearGradient id="SVGID_21_" gradientUnits="userSpaceOnUse" x1="93.231" x2="105.791" xlink:href="#lg4" y1="250.23" y2="237.664"/><linearGradient id="SVGID_22_" gradientUnits="userSpaceOnUse" x1="69.173" x2="187.446" xlink:href="#lg4" y1="311.295" y2="336.515"/><linearGradient id="lg5"><stop offset="0" stop-color="#fff"/><stop offset="1" stop-color="#faa68e" stop-opacity="0"/></linearGradient><linearGradient id="SVGID_23_" gradientUnits="userSpaceOnUse" x1="123.798" x2="98.868" xlink:href="#lg5" y1="262.512" y2="280.485"/><linearGradient id="lg6"><stop offset="0" stop-color="#faa68e" stop-opacity="0"/><stop offset="1" stop-color="#c9766e"/></linearGradient><linearGradient id="SVGID_24_" gradientUnits="userSpaceOnUse" x1="122.533" x2="120.794" xlink:href="#lg6" y1="338.574" y2="315.383"/><linearGradient id="lg7"><stop offset="0" stop-color="#ffd945"/><stop offset=".4169" stop-color="#ffd744"/><stop offset=".6278" stop-color="#ffcf3f"/><stop offset=".7926" stop-color="#ffc237"/><stop offset=".9326" stop-color="#ffaf2c"/><stop offset="1" stop-color="#ffa325"/></linearGradient><linearGradient id="SVGID_25_" gradientTransform="matrix(-.997 .072 .072 .997 1930.584 -133.874)" gradientUnits="userSpaceOnUse" x1="1837.233" x2="1838.336" xlink:href="#lg7" y1="321.398" y2="337.016"/><linearGradient id="SVGID_26_" gradientUnits="userSpaceOnUse" x1="124.195" x2="122.745" xlink:href="#lg6" y1="356.56" y2="332.644"/><linearGradient id="SVGID_27_" gradientTransform="matrix(-.997 .072 .072 .997 1930.584 -133.874)" gradientUnits="userSpaceOnUse" x1="1836.782" x2="1837.885" xlink:href="#lg7" y1="339.771" y2="355.388"/><linearGradient id="SVGID_28_" gradientTransform="matrix(.979 -.203 -.203 -.979 2378.183 -2139.071)" gradientUnits="userSpaceOnUse" x1="-2410.389" x2="-2412.361" xlink:href="#lg4" y1="-1953.043" y2="-1942.951"/><linearGradient id="SVGID_29_" gradientTransform="matrix(1 .018 .018 -1 2804.926 -1978.649)" gradientUnits="userSpaceOnUse" x1="-2345.892" x2="-2355.216" xlink:href="#lg4" y1="-2278.819" y2="-2269.494"/><linearGradient id="SVGID_30_" gradientTransform="matrix(-1 0 0 1 766.618 0)" gradientUnits="userSpaceOnUse" x1="349.849" x2="362.409" xlink:href="#lg4" y1="250.23" y2="237.664"/><linearGradient id="SVGID_31_" gradientTransform="matrix(-1 0 0 1 766.618 0)" gradientUnits="userSpaceOnUse" x1="325.791" x2="444.064" xlink:href="#lg4" y1="311.295" y2="336.515"/><linearGradient id="SVGID_32_" gradientTransform="matrix(-1 0 0 1 766.618 0)" gradientUnits="userSpaceOnUse" x1="380.415" x2="355.485" xlink:href="#lg5" y1="262.512" y2="280.485"/><linearGradient id="SVGID_33_" gradientTransform="matrix(-1 0 0 1 766.618 0)" gradientUnits="userSpaceOnUse" x1="379.151" x2="377.411" xlink:href="#lg6" y1="338.574" y2="315.383"/><linearGradient id="SVGID_34_" gradientTransform="matrix(.997 .072 -.072 .997 -1163.966 -133.874)" gradientUnits="userSpaceOnUse" x1="1581.281" x2="1582.383" xlink:href="#lg7" y1="339.864" y2="355.482"/><linearGradient id="SVGID_35_" gradientTransform="matrix(-1 0 0 1 766.618 0)" gradientUnits="userSpaceOnUse" x1="380.812" x2="379.363" xlink:href="#lg6" y1="356.56" y2="332.644"/><linearGradient id="SVGID_36_" gradientTransform="matrix(.997 .072 -.072 .997 -1163.966 -133.874)" gradientUnits="userSpaceOnUse" x1="1580.83" x2="1581.932" xlink:href="#lg7" y1="358.237" y2="373.854"/><linearGradient id="SVGID_37_" gradientTransform="matrix(-.786 .618 -.618 -.786 -2920.221 93.108)" gradientUnits="userSpaceOnUse" x1="-2155.452" x2="-2157.424" xlink:href="#lg4" y1="-2050.587" y2="-2040.495"/><linearGradient id="SVGID_38_" gradientTransform="matrix(-.63 .776 -.776 -.63 -3072.519 522.817)" gradientUnits="userSpaceOnUse" x1="-2075.727" x2="-2085.052" xlink:href="#lg4" y1="-2317.816" y2="-2308.491"/><linearGradient id="SVGID_39_" gradientTransform="matrix(.644 -.765 .765 .644 -245.998 239.039)" gradientUnits="userSpaceOnUse" x1="80.44" x2="92.999" xlink:href="#lg4" y1="294.098" y2="281.533"/><linearGradient id="SVGID_40_" gradientTransform="matrix(.644 -.765 .765 .644 -245.998 239.039)" gradientUnits="userSpaceOnUse" x1="56.382" x2="174.654" xlink:href="#lg4" y1="355.163" y2="380.383"/><linearGradient id="SVGID_41_" gradientTransform="matrix(.644 -.765 .765 .644 -245.998 239.039)" gradientUnits="userSpaceOnUse" x1="111.006" x2="86.076" xlink:href="#lg5" y1="306.38" y2="324.353"/><linearGradient id="SVGID_42_" gradientTransform="matrix(.644 -.765 .765 .644 -245.998 239.039)" gradientUnits="userSpaceOnUse" x1="109.741" x2="108.002" xlink:href="#lg6" y1="382.442" y2="359.252"/><linearGradient id="SVGID_43_" gradientTransform="matrix(-.588 .809 .809 .588 895.616 -1323.585)" gradientUnits="userSpaceOnUse" x1="1853.149" x2="1854.251" xlink:href="#lg7" y1="364.232" y2="379.85"/><linearGradient id="SVGID_44_" gradientTransform="matrix(.644 -.765 .765 .644 -245.998 239.039)" gradientUnits="userSpaceOnUse" x1="111.403" x2="109.953" xlink:href="#lg6" y1="400.428" y2="376.512"/><linearGradient id="SVGID_45_" gradientTransform="matrix(-.588 .809 .809 .588 895.616 -1323.585)" gradientUnits="userSpaceOnUse" x1="1852.698" x2="1853.8" xlink:href="#lg7" y1="382.605" y2="398.222"/><linearGradient id="SVGID_46_" gradientTransform="matrix(.786 .618 .618 -.786 3061.014 93.108)" gradientUnits="userSpaceOnUse" x1="-1865.275" x2="-1867.247" xlink:href="#lg4" y1="-1822.301" y2="-1812.209"/><linearGradient id="SVGID_47_" gradientTransform="matrix(.63 .776 .776 -.63 3213.312 522.817)" gradientUnits="userSpaceOnUse" x1="-1842.957" x2="-1852.282" xlink:href="#lg4" y1="-2031.218" y2="-2021.893"/><linearGradient id="SVGID_48_" gradientTransform="matrix(-.644 -.765 -.765 .644 386.791 239.039)" gradientUnits="userSpaceOnUse" x1="-157.462" x2="-144.902" xlink:href="#lg4" y1="11.758" y2="-.808"/><linearGradient id="SVGID_49_" gradientTransform="matrix(-.644 -.765 -.765 .644 386.791 239.039)" gradientUnits="userSpaceOnUse" x1="-181.52" x2="-63.247" xlink:href="#lg4" y1="72.822" y2="98.042"/><linearGradient id="SVGID_50_" gradientTransform="matrix(-.644 -.765 -.765 .644 386.791 239.039)" gradientUnits="userSpaceOnUse" x1="-126.896" x2="-151.826" xlink:href="#lg5" y1="24.039" y2="42.012"/><linearGradient id="SVGID_51_" gradientTransform="matrix(-.644 -.765 -.765 .644 386.791 239.039)" gradientUnits="userSpaceOnUse" x1="-128.161" x2="-129.9" xlink:href="#lg6" y1="100.102" y2="76.911"/><linearGradient id="SVGID_52_" gradientTransform="matrix(.588 .809 -.809 .588 -754.823 -1323.585)" gradientUnits="userSpaceOnUse" x1="2070.117" x2="2071.219" xlink:href="#lg7" y1="65.504" y2="81.122"/><linearGradient id="SVGID_53_" gradientTransform="matrix(-.644 -.765 -.765 .644 386.791 239.039)" gradientUnits="userSpaceOnUse" x1="-126.499" x2="-127.948" xlink:href="#lg6" y1="118.087" y2="94.172"/><linearGradient id="SVGID_54_" gradientTransform="matrix(.588 .809 -.809 .588 -754.823 -1323.585)" gradientUnits="userSpaceOnUse" x1="2069.666" x2="2070.768" xlink:href="#lg7" y1="83.877" y2="99.494"/><linearGradient id="SVGID_55_" gradientTransform="matrix(-.016 1 -1 -.016 -2033.29 2551.644)" gradientUnits="userSpaceOnUse" x1="-2098.2" x2="-2100.172" xlink:href="#lg4" y1="-2042.128" y2="-2032.036"/><linearGradient id="SVGID_56_" gradientTransform="matrix(.204 .979 -.979 .204 -1796.019 2940.934)" gradientUnits="userSpaceOnUse" x1="-2021.744" x2="-2031.068" xlink:href="#lg4" y1="-2296.954" y2="-2287.629"/><linearGradient id="SVGID_57_" gradientTransform="matrix(-.187 -.982 .982 -.187 -232.7 569.06)" gradientUnits="userSpaceOnUse" x1="26.09" x2="38.649" xlink:href="#lg4" y1="274.215" y2="261.649"/><linearGradient id="SVGID_58_" gradientTransform="matrix(-.187 -.982 .982 -.187 -232.7 569.06)" gradientUnits="userSpaceOnUse" x1="2.032" x2="120.304" xlink:href="#lg4" y1="335.28" y2="360.5"/><linearGradient id="SVGID_59_" gradientTransform="matrix(-.187 -.982 .982 -.187 -232.7 569.06)" gradientUnits="userSpaceOnUse" x1="56.656" x2="31.726" xlink:href="#lg5" y1="286.497" y2="304.469"/><linearGradient id="SVGID_60_" gradientTransform="matrix(-.187 -.982 .982 -.187 -232.7 569.06)" gradientUnits="userSpaceOnUse" x1="55.391" x2="53.652" xlink:href="#lg6" y1="362.559" y2="339.368"/><linearGradient id="SVGID_61_" gradientTransform="matrix(.257 .966 .966 -.257 -724.65 -1302.586)" gradientUnits="userSpaceOnUse" x1="1905.927" x2="1907.029" xlink:href="#lg7" y1="340.489" y2="356.107"/><linearGradient id="SVGID_62_" gradientTransform="matrix(-.187 -.982 .982 -.187 -232.7 569.06)" gradientUnits="userSpaceOnUse" x1="57.053" x2="55.603" xlink:href="#lg6" y1="380.544" y2="356.629"/><linearGradient id="SVGID_63_" gradientTransform="matrix(.257 .966 .966 -.257 -724.65 -1302.586)" gradientUnits="userSpaceOnUse" x1="1905.476" x2="1906.578" xlink:href="#lg7" y1="358.862" y2="374.479"/><linearGradient id="SVGID_64_" gradientTransform="matrix(.016 1 1 -.016 2228.235 2551.644)" gradientUnits="userSpaceOnUse" x1="-2093.088" x2="-2095.06" xlink:href="#lg4" y1="-1727.111" y2="-1717.019"/><linearGradient id="SVGID_65_" gradientTransform="matrix(-.204 .979 .979 .204 1990.964 2940.934)" gradientUnits="userSpaceOnUse" x1="-2086.144" x2="-2095.469" xlink:href="#lg4" y1="-1988.543" y2="-1979.219"/><linearGradient id="SVGID_66_" gradientTransform="matrix(.187 -.982 -.982 -.187 427.645 569.06)" gradientUnits="userSpaceOnUse" x1="84.909" x2="97.469" xlink:href="#lg4" y1="-35.3" y2="-47.866"/><linearGradient id="SVGID_67_" gradientTransform="matrix(.187 -.982 -.982 -.187 427.645 569.06)" gradientUnits="userSpaceOnUse" x1="60.851" x2="179.124" xlink:href="#lg4" y1="25.764" y2="50.984"/><linearGradient id="SVGID_68_" gradientTransform="matrix(.187 -.982 -.982 -.187 427.645 569.06)" gradientUnits="userSpaceOnUse" x1="115.475" x2="90.545" xlink:href="#lg5" y1="-23.019" y2="-5.046"/><linearGradient id="SVGID_69_" gradientTransform="matrix(.187 -.982 -.982 -.187 427.645 569.06)" gradientUnits="userSpaceOnUse" x1="114.211" x2="112.471" xlink:href="#lg6" y1="53.044" y2="29.853"/><linearGradient id="SVGID_70_" gradientTransform="matrix(-.257 .966 -.966 -.257 919.595 -1302.586)" gradientUnits="userSpaceOnUse" x1="1824.988" x2="1826.09" xlink:href="#lg7" y1="36.009" y2="51.626"/><linearGradient id="SVGID_71_" gradientTransform="matrix(.187 -.982 -.982 -.187 427.645 569.06)" gradientUnits="userSpaceOnUse" x1="115.872" x2="114.423" xlink:href="#lg6" y1="71.029" y2="47.114"/><linearGradient id="SVGID_72_" gradientTransform="matrix(-.257 .966 -.966 -.257 919.595 -1302.586)" gradientUnits="userSpaceOnUse" x1="1824.537" x2="1825.639" xlink:href="#lg7" y1="54.381" y2="69.999"/><linearGradient id="lg8"><stop offset="0" stop-color="#8a7889"/><stop offset="1" stop-color="#6e566e"/></linearGradient><linearGradient id="SVGID_73_" gradientUnits="userSpaceOnUse" x1="132.188" x2="334.701" xlink:href="#lg8" y1="245.609" y2="420.542"/><linearGradient id="lg9"><stop offset="0" stop-color="#ff7044"/><stop offset="1" stop-color="#f92814"/></linearGradient><linearGradient id="SVGID_74_" gradientUnits="userSpaceOnUse" x1="252.367" x2="259.703" xlink:href="#lg9" y1="458.649" y2="520.597"/><linearGradient id="SVGID_75_" gradientUnits="userSpaceOnUse" x1="255" x2="255" xlink:href="#lg4" y1="362.11" y2="423.808"/><linearGradient id="SVGID_76_" gradientUnits="userSpaceOnUse" x1="304.54" x2="265.414" xlink:href="#lg6" y1="441.399" y2="227.568"/><linearGradient id="lg10"><stop offset="0" stop-color="#ffd945"/><stop offset=".2512" stop-color="#ffd442"/><stop offset=".5623" stop-color="#ffc439"/><stop offset=".9036" stop-color="#ffab2a"/><stop offset="1" stop-color="#ffa325"/></linearGradient><linearGradient id="SVGID_77_" gradientUnits="userSpaceOnUse" x1="255" x2="255" xlink:href="#lg10" y1="387.162" y2="467.17"/><linearGradient id="SVGID_78_" gradientUnits="userSpaceOnUse" x1="255" x2="255" xlink:href="#lg10" y1="446.298" y2="461.542"/><linearGradient id="lg11"><stop offset="0" stop-color="#e87264" stop-opacity="0"/><stop offset="1" stop-color="#ff7044"/></linearGradient><linearGradient id="SVGID_79_" gradientUnits="userSpaceOnUse" x1="329.595" x2="238.282" xlink:href="#lg11" y1="442.289" y2="331.409"/><linearGradient id="SVGID_80_" gradientUnits="userSpaceOnUse" x1="214.028" x2="205.39" xlink:href="#lg10" y1="429.925" y2="417.679"/><linearGradient id="SVGID_81_" gradientUnits="userSpaceOnUse" x1="209.373" x2="219.671" xlink:href="#lg9" y1="424.569" y2="434.867"/><linearGradient id="lg12"><stop offset="0" stop-color="#ff7044" stop-opacity="0"/><stop offset="1" stop-color="#ffa425"/></linearGradient><linearGradient id="SVGID_82_" gradientUnits="userSpaceOnUse" x1="213.302" x2="208.396" xlink:href="#lg12" y1="428.896" y2="421.941"/><linearGradient id="lg13"><stop offset="0" stop-color="#f92814" stop-opacity="0"/><stop offset="1" stop-color="#c1272d"/></linearGradient><linearGradient id="SVGID_83_" gradientUnits="userSpaceOnUse" x1="212.624" x2="223.554" xlink:href="#lg13" y1="430.591" y2="410.264"/><linearGradient id="SVGID_84_" gradientUnits="userSpaceOnUse" x1="256.68" x2="248.042" xlink:href="#lg10" y1="437.752" y2="425.506"/><linearGradient id="SVGID_85_" gradientUnits="userSpaceOnUse" x1="252.025" x2="262.323" xlink:href="#lg9" y1="432.395" y2="442.694"/><linearGradient id="SVGID_86_" gradientUnits="userSpaceOnUse" x1="255.954" x2="251.048" xlink:href="#lg12" y1="436.723" y2="429.768"/><linearGradient id="SVGID_87_" gradientUnits="userSpaceOnUse" x1="255.276" x2="266.206" xlink:href="#lg13" y1="438.418" y2="418.09"/><linearGradient id="SVGID_88_" gradientUnits="userSpaceOnUse" x1="299.332" x2="290.694" xlink:href="#lg10" y1="429.925" y2="417.679"/><linearGradient id="SVGID_89_" gradientUnits="userSpaceOnUse" x1="294.677" x2="304.975" xlink:href="#lg9" y1="424.569" y2="434.867"/><linearGradient id="SVGID_90_" gradientUnits="userSpaceOnUse" x1="298.606" x2="293.7" xlink:href="#lg12" y1="428.896" y2="421.941"/><linearGradient id="SVGID_91_" gradientUnits="userSpaceOnUse" x1="297.928" x2="308.858" xlink:href="#lg13" y1="430.591" y2="410.264"/><linearGradient id="SVGID_92_" gradientUnits="userSpaceOnUse" x1="255" x2="255" xlink:href="#lg10" y1="396.974" y2="418.827"/><linearGradient id="lg14"><stop offset="0" stop-color="#f8f6fb"/><stop offset="1" stop-color="#efdcfb"/></linearGradient><linearGradient id="SVGID_93_" gradientUnits="userSpaceOnUse" x1="185.891" x2="236.756" xlink:href="#lg14" y1="419.09" y2="458.651"/><linearGradient id="lg15"><stop offset="0" stop-color="#efdcfb" stop-opacity="0"/><stop offset=".4856" stop-color="#baaad6" stop-opacity=".486"/><stop offset="1" stop-color="#8679b2"/></linearGradient><linearGradient id="SVGID_94_" gradientUnits="userSpaceOnUse" x1="209.065" x2="177.097" xlink:href="#lg15" y1="447.082" y2="455.732"/><linearGradient id="SVGID_95_" gradientUnits="userSpaceOnUse" x1="209.35" x2="179.364" xlink:href="#lg15" y1="420.02" y2="362.525"/><linearGradient id="SVGID_96_" gradientUnits="userSpaceOnUse" x1="226.569" x2="169.085" xlink:href="#lg15" y1="445.058" y2="479.203"/><linearGradient id="SVGID_97_" gradientTransform="matrix(-1 0 0 1 1408.53 0)" gradientUnits="userSpaceOnUse" x1="1084.421" x2="1135.285" xlink:href="#lg14" y1="419.09" y2="458.651"/><linearGradient id="SVGID_98_" gradientTransform="matrix(-1 0 0 1 1408.53 0)" gradientUnits="userSpaceOnUse" x1="1107.594" x2="1075.627" xlink:href="#lg15" y1="447.082" y2="455.732"/><linearGradient id="SVGID_99_" gradientTransform="matrix(-1 0 0 1 1408.53 0)" gradientUnits="userSpaceOnUse" x1="1107.88" x2="1077.893" xlink:href="#lg15" y1="420.02" y2="362.525"/><linearGradient id="SVGID_100_" gradientTransform="matrix(-1 0 0 1 1408.53 0)" gradientUnits="userSpaceOnUse" x1="1125.099" x2="1067.614" xlink:href="#lg15" y1="445.058" y2="479.203"/><linearGradient id="SVGID_101_" gradientUnits="userSpaceOnUse" x1="232.318" x2="338.172" xlink:href="#lg4" y1="270.645" y2="350.287"/><linearGradient id="SVGID_102_" gradientUnits="userSpaceOnUse" x1="240.71" x2="257.953" xlink:href="#lg8" y1="181.52" y2="284.152"/><linearGradient id="SVGID_103_" gradientUnits="userSpaceOnUse" x1="212.169" x2="229.483" xlink:href="#lg8" y1="285.69" y2="303.004"/><linearGradient id="lg16"><stop offset="0" stop-color="#bdc2d1" stop-opacity="0"/><stop offset=".3183" stop-color="#c1c6d4" stop-opacity=".318"/><stop offset=".6082" stop-color="#ccd0dd" stop-opacity=".608"/><stop offset=".8861" stop-color="#dee2ec" stop-opacity=".886"/><stop offset="1" stop-color="#e8ecf4"/></linearGradient><linearGradient id="SVGID_104_" gradientUnits="userSpaceOnUse" x1="215.63" x2="205.932" xlink:href="#lg16" y1="288.47" y2="274.491"/><linearGradient id="lg17"><stop offset="0" stop-color="#6e566e" stop-opacity="0"/><stop offset=".0471" stop-color="#6e566e" stop-opacity=".047"/><stop offset="1" stop-color="#6e566e"/></linearGradient><linearGradient id="SVGID_105_" gradientUnits="userSpaceOnUse" x1="217.635" x2="236.011" xlink:href="#lg17" y1="295.815" y2="261.639"/><linearGradient id="SVGID_106_" gradientUnits="userSpaceOnUse" x1="287.828" x2="305.142" xlink:href="#lg8" y1="285.69" y2="303.004"/><linearGradient id="SVGID_107_" gradientUnits="userSpaceOnUse" x1="291.288" x2="281.591" xlink:href="#lg16" y1="288.47" y2="274.491"/><linearGradient id="SVGID_108_" gradientUnits="userSpaceOnUse" x1="293.294" x2="311.669" xlink:href="#lg17" y1="295.815" y2="261.639"/><linearGradient id="SVGID_109_" gradientUnits="userSpaceOnUse" x1="255" x2="255" xlink:href="#lg6" y1="317.871" y2="381.874"/><linearGradient id="SVGID_110_" gradientUnits="userSpaceOnUse" x1="244.567" x2="258.139" xlink:href="#lg10" y1="111.195" y2="148.519"/><linearGradient id="SVGID_111_" gradientUnits="userSpaceOnUse" x1="255" x2="255" xlink:href="#lg10" y1="133.2" y2="156.08"/><linearGradient id="SVGID_112_" gradientTransform="matrix(.059 .998 .669 -.04 856.199 3209.125)" gradientUnits="userSpaceOnUse" x1="-3028.122" x2="-3003.045" xlink:href="#lg10" y1="-767.923" y2="-760.784"/><linearGradient id="lg18"><stop offset="0" stop-color="#ffd945" stop-opacity="0"/><stop offset="1" stop-color="#fbed21"/></linearGradient><linearGradient id="SVGID_113_" gradientTransform="matrix(.461 -.693 .489 .72 35.762 173.499)" gradientUnits="userSpaceOnUse" x1="97.747" x2="97.476" xlink:href="#lg18" y1="183.495" y2="159.314"/><linearGradient id="SVGID_114_" gradientTransform="matrix(-.34 .941 .631 .228 -389.315 3213.42)" gradientUnits="userSpaceOnUse" x1="-3025.026" x2="-2999.949" xlink:href="#lg10" y1="-737.505" y2="-730.367"/><linearGradient id="SVGID_115_" gradientTransform="matrix(.697 -.455 .165 .854 54.009 100.286)" gradientUnits="userSpaceOnUse" x1="118.432" x2="118.16" xlink:href="#lg18" y1="206.011" y2="181.829"/><linearGradient id="SVGID_116_" gradientTransform="matrix(-.683 .731 .49 .458 -1535.56 2726.135)" gradientUnits="userSpaceOnUse" x1="-3030.225" x2="-3005.148" xlink:href="#lg10" y1="-707.732" y2="-700.594"/><linearGradient id="SVGID_117_" gradientTransform="matrix(.82 -.143 -.185 .85 99.652 40.205)" gradientUnits="userSpaceOnUse" x1="144.143" x2="143.872" xlink:href="#lg18" y1="221.897" y2="197.715"/><linearGradient id="SVGID_118_" gradientTransform="matrix(-.916 .402 .27 .614 -2396.702 1826.269)" gradientUnits="userSpaceOnUse" x1="-3042.877" x2="-3017.8" xlink:href="#lg10" y1="-683.431" y2="-676.293"/><linearGradient id="SVGID_119_" gradientTransform="matrix(.81 .192 -.506 .708 165.291 2.995)" gradientUnits="userSpaceOnUse" x1="170.714" x2="170.442" xlink:href="#lg18" y1="228.577" y2="204.395"/><linearGradient id="SVGID_120_" gradientTransform="matrix(-1 .008 .006 .671 -2833.131 659.712)" gradientUnits="userSpaceOnUse" x1="-3060.931" x2="-3035.854" xlink:href="#lg10" y1="-668.541" y2="-661.403"/><linearGradient id="SVGID_121_" gradientTransform="matrix(.668 .496 -.744 .452 240.285 -5.31)" gradientUnits="userSpaceOnUse" x1="193.836" x2="193.564" xlink:href="#lg18" y1="224.968" y2="200.787"/><linearGradient id="SVGID_122_" gradientTransform="matrix(-.059 .998 -.669 -.04 -237.701 3209.125)" gradientUnits="userSpaceOnUse" x1="-3021.716" x2="-2996.639" xlink:href="#lg10" y1="-606.406" y2="-599.267"/><linearGradient id="SVGID_123_" gradientTransform="matrix(-.461 -.693 -.489 .72 582.736 173.499)" gradientUnits="userSpaceOnUse" x1="214.246" x2="213.975" xlink:href="#lg18" y1="295.552" y2="271.37"/><linearGradient id="SVGID_124_" gradientTransform="matrix(.34 .941 -.631 .228 1007.813 3213.42)" gradientUnits="userSpaceOnUse" x1="-3061.856" x2="-3036.78" xlink:href="#lg10" y1="-585.314" y2="-578.175"/><linearGradient id="SVGID_125_" gradientTransform="matrix(-.697 -.455 -.165 .854 564.489 100.286)" gradientUnits="userSpaceOnUse" x1="256.673" x2="256.401" xlink:href="#lg18" y1="279.55" y2="255.368"/><linearGradient id="SVGID_126_" gradientTransform="matrix(.683 .731 -.49 .458 2154.058 2726.135)" gradientUnits="userSpaceOnUse" x1="-3104.321" x2="-3079.244" xlink:href="#lg10" y1="-589.54" y2="-582.402"/><linearGradient id="SVGID_127_" gradientTransform="matrix(-.82 -.143 .185 .85 518.846 40.205)" gradientUnits="userSpaceOnUse" x1="281.715" x2="281.444" xlink:href="#lg18" y1="244.996" y2="220.814"/><linearGradient id="SVGID_128_" gradientTransform="matrix(.916 .402 -.27 .614 3015.2 1826.269)" gradientUnits="userSpaceOnUse" x1="-3142.226" x2="-3117.149" xlink:href="#lg10" y1="-618.4" y2="-611.261"/><linearGradient id="SVGID_129_" gradientTransform="matrix(-.81 .192 .506 .708 453.207 2.995)" gradientUnits="userSpaceOnUse" x1="285.313" x2="285.041" xlink:href="#lg18" y1="197.491" y2="173.309"/><linearGradient id="SVGID_130_" gradientTransform="matrix(1 .008 -.006 .671 3451.628 659.712)" gradientUnits="userSpaceOnUse" x1="-3169.425" x2="-3144.348" xlink:href="#lg10" y1="-667.214" y2="-660.076"/><linearGradient id="SVGID_131_" gradientTransform="matrix(-.668 .496 .744 .452 378.213 -5.31)" gradientUnits="userSpaceOnUse" x1="266.882" x2="266.61" xlink:href="#lg18" y1="144.738" y2="120.556"/><linearGradient id="SVGID_132_" gradientUnits="userSpaceOnUse" x1="255" x2="255" xlink:href="#lg10" y1="153.845" y2="242.253"/><linearGradient id="SVGID_133_" gradientUnits="userSpaceOnUse" x1="255" x2="255" xlink:href="#lg11" y1="146.09" y2="313.809"/><linearGradient id="SVGID_135_" gradientUnits="userSpaceOnUse" x1="255" x2="255" xlink:href="#lg10" y1="165.403" y2="212.873"/><linearGradient id="SVGID_136_" gradientUnits="userSpaceOnUse" x1="220.062" x2="327.225" xlink:href="#lg10" y1="222.006" y2="248.914"/><linearGradient id="SVGID_137_" gradientUnits="userSpaceOnUse" x1="255" x2="255" xlink:href="#lg11" y1="192.966" y2="244.086"/><linearGradient id="SVGID_138_" gradientUnits="userSpaceOnUse" x1="255" x2="255" xlink:href="#lg11" y1="191.477" y2="233.744"/><linearGradient id="SVGID_139_" gradientUnits="userSpaceOnUse" x1="217.621" x2="325.904" xlink:href="#lg8" y1="236.887" y2="264.077"/><linearGradient id="SVGID_140_" gradientUnits="userSpaceOnUse" x1="255" x2="255" xlink:href="#lg10" y1="220.863" y2="253.035"/><linearGradient id="SVGID_141_" gradientUnits="userSpaceOnUse" x1="256.092" x2="250.476" xlink:href="#lg10" y1="234.111" y2="226.149"/><linearGradient id="SVGID_142_" gradientUnits="userSpaceOnUse" x1="253.066" x2="259.761" xlink:href="#lg9" y1="230.628" y2="237.324"/><linearGradient id="SVGID_143_" gradientUnits="userSpaceOnUse" x1="255.62" x2="252.431" xlink:href="#lg12" y1="233.442" y2="228.92"/><linearGradient id="SVGID_144_" gradientUnits="userSpaceOnUse" x1="255.18" x2="262.286" xlink:href="#lg13" y1="234.544" y2="221.328"/><linearGradient id="SVGID_145_" gradientUnits="userSpaceOnUse" x1="250.734" x2="267.712" y1="201.937" y2="218.915"><stop offset="0" stop-color="#ffd945"/><stop offset=".3043" stop-color="#ffcd3e"/><stop offset=".8558" stop-color="#ffad2b"/><stop offset="1" stop-color="#ffa325"/></linearGradient><linearGradient id="SVGID_146_" gradientUnits="userSpaceOnUse" x1="247.918" x2="265.217" y1="200.846" y2="213.931"><stop offset="0" stop-color="#91f27f"/><stop offset="1" stop-color="#00b302"/></linearGradient><linearGradient id="SVGID_147_" gradientUnits="userSpaceOnUse" x1="257.159" x2="249.963" y1="208.618" y2="200.295"><stop offset="0" stop-color="#91f27f" stop-opacity="0"/><stop offset="1" stop-color="#ffed82"/></linearGradient><linearGradient id="lg19"><stop offset="0" stop-color="#005a01" stop-opacity="0"/><stop offset="1" stop-color="#005a01"/></linearGradient><linearGradient id="SVGID_148_" gradientUnits="userSpaceOnUse" x1="256.263" x2="243.785" xlink:href="#lg19" y1="206.076" y2="185.699"/><linearGradient id="SVGID_149_" gradientUnits="userSpaceOnUse" x1="257.19" x2="248.044" xlink:href="#lg19" y1="210.091" y2="195.156"/><linearGradient id="SVGID_150_" gradientTransform="matrix(.748 -.664 .664 .748 3157.735 -1549.51)" gradientUnits="userSpaceOnUse" x1="-3453.08" x2="-3428.003" xlink:href="#lg1" y1="-659.869" y2="-652.73"/><linearGradient id="SVGID_151_" gradientTransform="matrix(.748 -.664 .664 .748 3157.735 -1549.51)" gradientUnits="userSpaceOnUse" x1="-3429.501" x2="-3476.909" xlink:href="#lg2" y1="-652.475" y2="-671.329"/><linearGradient id="SVGID_152_" gradientTransform="matrix(.944 -.331 .331 .944 2197.533 -621.735)" gradientUnits="userSpaceOnUse" x1="-2220.194" x2="-2195.117" xlink:href="#lg1" y1="132.143" y2="139.281"/><linearGradient id="SVGID_153_" gradientTransform="matrix(.944 -.331 .331 .944 2197.533 -621.735)" gradientUnits="userSpaceOnUse" x1="-2196.615" x2="-2244.023" xlink:href="#lg2" y1="139.536" y2="120.683"/><radialGradient id="SVGID_154_" cx="165.355" cy="254.503" gradientUnits="userSpaceOnUse" r="19.399" xlink:href="#lg7"/><linearGradient id="SVGID_155_" gradientUnits="userSpaceOnUse" x1="172.543" x2="153.919" xlink:href="#lg18" y1="263.187" y2="244.562"/><linearGradient id="SVGID_156_" gradientUnits="userSpaceOnUse" x1="176.453" x2="205.456" xlink:href="#lg11" y1="261.067" y2="236.518"/><linearGradient id="SVGID_157_" gradientUnits="userSpaceOnUse" x1="169.839" x2="169.839" xlink:href="#lg2" y1="255.694" y2="241.012"/><linearGradient id="SVGID_158_" gradientTransform="matrix(-.748 -.664 -.664 .748 -2374.833 -1549.51)" gradientUnits="userSpaceOnUse" x1="-3249.053" x2="-3223.976" xlink:href="#lg1" y1="-478.627" y2="-471.488"/><linearGradient id="SVGID_159_" gradientTransform="matrix(-.748 -.664 -.664 .748 -2374.833 -1549.51)" gradientUnits="userSpaceOnUse" x1="-3225.474" x2="-3272.882" xlink:href="#lg2" y1="-471.233" y2="-490.087"/><linearGradient id="SVGID_160_" gradientTransform="matrix(-.944 -.331 -.331 .944 -1414.631 -621.735)" gradientUnits="userSpaceOnUse" x1="-1962.679" x2="-1937.602" xlink:href="#lg1" y1="222.487" y2="229.625"/><linearGradient id="SVGID_161_" gradientTransform="matrix(-.944 -.331 -.331 .944 -1414.631 -621.735)" gradientUnits="userSpaceOnUse" x1="-1939.1" x2="-1986.508" xlink:href="#lg2" y1="229.88" y2="211.027"/><radialGradient id="SVGID_162_" cx="335.677" cy="254.503" gradientUnits="userSpaceOnUse" r="19.399" xlink:href="#lg7"/><linearGradient id="SVGID_163_" gradientUnits="userSpaceOnUse" x1="342.866" x2="324.241" xlink:href="#lg18" y1="263.187" y2="244.562"/><linearGradient id="SVGID_164_" gradientUnits="userSpaceOnUse" x1="346.775" x2="375.778" xlink:href="#lg11" y1="261.067" y2="236.518"/><linearGradient id="SVGID_165_" gradientUnits="userSpaceOnUse" x1="340.161" x2="340.161" xlink:href="#lg2" y1="255.694" y2="241.012"/><linearGradient id="SVGID_166_" gradientUnits="userSpaceOnUse" x1="252.819" x2="260.369" xlink:href="#lg9" y1="271.577" y2="279.127"/><linearGradient id="SVGID_167_" gradientUnits="userSpaceOnUse" x1="255.7" x2="252.102" xlink:href="#lg12" y1="274.75" y2="269.65"/><linearGradient id="SVGID_168_" gradientUnits="userSpaceOnUse" x1="255.203" x2="263.216" xlink:href="#lg13" y1="275.992" y2="261.089"/><linearGradient id="SVGID_169_" gradientTransform="matrix(-1 0 0 1 1882 0)" gradientUnits="userSpaceOnUse" x1="1716.715" x2="1731.502" xlink:href="#lg4" y1="417.03" y2="415.914"/><linearGradient id="SVGID_170_" gradientTransform="matrix(-1 0 0 1 1882 0)" gradientUnits="userSpaceOnUse" x1="1744.751" x2="1765.296" xlink:href="#lg4" y1="415.904" y2="416.185"/><linearGradient id="SVGID_171_" gradientTransform="matrix(-1 0 0 1 1882 0)" gradientUnits="userSpaceOnUse" x1="1756.033" x2="1773.934" xlink:href="#lg4" y1="419.178" y2="424.686"/><linearGradient id="SVGID_172_" gradientTransform="matrix(-1 0 0 1 1882 0)" gradientUnits="userSpaceOnUse" x1="1727.856" x2="1749.245" xlink:href="#lg4" y1="411.254" y2="412.38"/><linearGradient id="SVGID_173_" gradientTransform="matrix(0 -1 -1 0 742.465 -1449.743)" gradientUnits="userSpaceOnUse" x1="-1885.829" x2="-1885.863" y1="570.597" y2="570.771"><stop offset="0" stop-color="#fcb37e"/><stop offset="1" stop-color="#8c6239"/></linearGradient><linearGradient id="SVGID_174_" gradientTransform="matrix(-1 0 0 1 -314.358 -2342.023)" gradientUnits="userSpaceOnUse" x1="-501.679" x2="-410.957" xlink:href="#lg4" y1="2775.438" y2="2848.016"/><linearGradient id="SVGID_175_" gradientUnits="userSpaceOnUse" x1="147.772" x2="186.443" xlink:href="#lg6" y1="461.692" y2="374.05"/><linearGradient id="SVGID_176_" gradientUnits="userSpaceOnUse" x1="174.752" x2="139.906" xlink:href="#lg5" y1="427.688" y2="462.331"/><linearGradient id="SVGID_177_" gradientUnits="userSpaceOnUse" x1="147.111" x2="147.111" xlink:href="#lg6" y1="493.014" y2="477.981"/><linearGradient id="SVGID_178_" gradientTransform="matrix(-1 0 0 1 1882 0)" gradientUnits="userSpaceOnUse" x1="1734.246" x2="1735.371" xlink:href="#lg7" y1="472.923" y2="488.872"/><linearGradient id="SVGID_179_" gradientUnits="userSpaceOnUse" x1="147.111" x2="147.111" xlink:href="#lg6" y1="511.626" y2="500.77"/><linearGradient id="SVGID_180_" gradientTransform="matrix(-1 0 0 1 1882 0)" gradientUnits="userSpaceOnUse" x1="1734.245" x2="1735.371" xlink:href="#lg7" y1="492.116" y2="508.064"/><g><circle cx="255" cy="198.919" fill="url(#SVGID_1_)" r="198.918"/><g><g><g><path d="m197.309 151.562c19.028 8.136 38.49 9.301 52.989 4.465 1.869-.624 2.784-2.763 1.944-4.545-6.52-13.824-20.807-27.09-39.836-35.226s-38.49-9.301-52.989-4.465c-1.869.624-2.784 2.763-1.944 4.545 6.52 13.824 20.808 27.09 39.836 35.226z" fill="url(#SVGID_2_)"/><path d="m252.242 151.482c-6.52-13.824-20.807-27.09-39.836-35.226s-38.49-9.301-52.989-4.465c-.935.312-1.631 1.003-1.988 1.838l94.857 40.56c.357-.836.376-1.816-.044-2.707z" fill="url(#SVGID_3_)"/></g><g><path d="m202.411 130.912c14.522 14.744 32.089 23.202 47.339 24.224 1.966.132 3.624-1.501 3.522-3.469-.791-15.264-8.982-32.956-23.504-47.7s-32.089-23.202-47.339-24.224c-1.966-.132-3.624 1.501-3.522 3.469.791 15.263 8.981 32.956 23.504 47.7z" fill="url(#SVGID_4_)"/><path d="m253.271 151.667c-.791-15.264-8.982-32.956-23.504-47.7s-32.089-23.202-47.339-24.224c-.983-.066-1.889.309-2.537.947l72.394 73.499c.648-.638 1.037-1.538.986-2.522z" fill="url(#SVGID_5_)"/></g><g><path d="m214.961 113.739c7.847 19.149 20.895 33.636 34.618 40.365 1.769.867 3.923-.015 4.574-1.874 5.056-14.424 4.186-33.901-3.662-53.05-7.847-19.149-20.895-33.636-34.618-40.365-1.769-.867-3.923.015-4.574 1.875-5.055 14.422-4.185 33.899 3.662 53.049z" fill="url(#SVGID_6_)"/><path d="m254.154 152.229c5.056-14.424 4.186-33.901-3.662-53.05-7.847-19.149-20.895-33.636-34.618-40.365-.885-.434-1.865-.43-2.706-.085l39.118 95.461c.841-.346 1.542-1.031 1.868-1.961z" fill="url(#SVGID_7_)"/></g><g><path d="m312.691 151.562c-19.028 8.136-38.49 9.301-52.989 4.465-1.869-.624-2.784-2.763-1.944-4.545 6.52-13.824 20.807-27.09 39.836-35.226 19.028-8.136 38.49-9.301 52.989-4.465 1.869.624 2.784 2.763 1.944 4.545-6.52 13.824-20.808 27.09-39.836 35.226z" fill="url(#SVGID_8_)"/><path d="m257.758 151.482c6.52-13.824 20.807-27.09 39.836-35.226 19.028-8.136 38.49-9.301 52.989-4.465.935.312 1.631 1.003 1.988 1.838l-94.857 40.56c-.357-.836-.376-1.816.044-2.707z" fill="url(#SVGID_9_)"/></g><path d="m343.424 129.92-20.19-20.19s-.06-.11-.169-.308c-8.25.925-16.904 3.171-25.47 6.834-19.028 8.136-33.316 21.402-39.836 35.226-.841 1.782.074 3.922 1.944 4.545 14.499 4.837 33.96 3.671 52.989-4.465 12.627-5.4 23.164-13.06 30.732-21.642z" fill="url(#SVGID_10_)"/><g><path d="m307.589 130.912c-14.522 14.744-32.089 23.202-47.339 24.224-1.966.132-3.624-1.501-3.522-3.469.791-15.264 8.982-32.956 23.504-47.7s32.089-23.202 47.339-24.224c1.966-.132 3.624 1.501 3.522 3.469-.791 15.263-8.981 32.956-23.504 47.7z" fill="url(#SVGID_11_)"/><path d="m256.729 151.667c.791-15.264 8.982-32.956 23.504-47.7s32.089-23.202 47.339-24.224c.983-.066 1.889.309 2.537.947l-72.394 73.499c-.648-.638-1.037-1.538-.986-2.522z" fill="url(#SVGID_12_)"/></g><path d="m323.233 109.73-21.843-21.844c-7.345 3.995-14.566 9.387-21.158 16.08-14.522 14.744-22.713 32.437-23.504 47.7-.102 1.968 1.556 3.601 3.522 3.469 15.25-1.022 32.817-9.48 47.339-24.224 6.528-6.627 11.772-13.851 15.644-21.181z" fill="url(#SVGID_13_)"/><g><path d="m295.039 113.739c-7.847 19.149-20.895 33.636-34.618 40.365-1.769.867-3.923-.015-4.574-1.874-5.056-14.424-4.186-33.901 3.662-53.05 7.847-19.149 20.895-33.636 34.618-40.365 1.769-.867 3.923.015 4.574 1.875 5.055 14.422 4.185 33.899-3.662 53.049z" fill="url(#SVGID_14_)"/><path d="m255.846 152.229c-5.056-14.424-4.186-33.901 3.662-53.05 7.847-19.149 20.895-33.636 34.618-40.365.885-.434 1.865-.43 2.706-.085l-39.118 95.461c-.841-.346-1.542-1.031-1.868-1.961z" fill="url(#SVGID_15_)"/></g><path d="m295.039 113.739c1.071-2.613 2.007-5.231 2.82-7.843l-26.938-26.938-.033.007c-4.412 5.895-8.299 12.692-11.381 20.213-7.847 19.149-8.717 38.627-3.662 53.05.652 1.86 2.805 2.742 4.574 1.875 13.725-6.728 26.773-21.215 34.62-40.364z" fill="url(#SVGID_16_)"/><g><path d="m235.801 88.213c0 27.568 6.58 52.016 16.728 67.241 1.308 1.963 3.635 1.963 4.944 0 10.147-15.225 16.728-39.673 16.728-67.241s-6.58-52.016-16.728-67.241c-1.308-1.963-3.635-1.963-4.944 0-10.148 15.226-16.728 39.673-16.728 67.241z" fill="url(#SVGID_17_)"/><path d="m257.472 155.454c10.147-15.225 16.728-39.673 16.728-67.241s-6.58-52.016-16.728-67.241c-.654-.981-1.563-1.472-2.472-1.472v137.427c.909 0 1.818-.491 2.472-1.473z" fill="url(#SVGID_18_)"/></g></g></g><g><g><g><path d="m89.167 249.131c-3.207.472-3.998 4.939-1.142 6.472.364.196.733.333 1.097.384l10.521 1.528c4.324.629 8.185 2.092 11.25 4.208 1.915-4.497-.901-8.937-6.534-10.247-1.433-.333-2.901-.614-4.401-.84l-10.078-1.519c-.212-.032-.453-.025-.713.014z" fill="url(#SVGID_19_)"/><path d="m86.708 239.95 14.189 4.575c2.111.681 4.154 1.424 6.123 2.226 7.743 3.151 10.067 9.6 5.417 14.893-3.64-3.522-8.716-6.408-14.813-8.341l-13.113-4.156c-.332-.082-.645-.195-.939-.335-4.447-2.115-2.758-8.992 2.167-9 .343-.001.669.041.969.138z" fill="url(#SVGID_20_)"/><path d="m89.078 230.123 15.456 8.286c2.299 1.233 4.486 2.533 6.556 3.893 8.138 5.349 8.095 13.908-.038 19.776-2.905-5.093-7.869-9.637-14.525-13.156l-14.265-7.539c-.426-.225-.865-.741-1.297-1.428-3.055-4.861 1.037-11.303 6.69-10.301.524.092 1.003.244 1.423.469z" fill="url(#SVGID_21_)"/><g><path d="m163.596 387.89-16.007-6.83-7.933-80.784c-.461-7.817-.928-15.214-1.281-19.633l-1.286-16.102c-1.202-15.039-11.905-28.862-29.757-38.428l-14.658-7.855c-1.042-.558-2.225-.952-3.473-1.186-6.892-1.292-11.858 6.855-7.275 12.162.479.555 1.017 1.015 1.619 1.334l12.669 6.697c6.68 3.531 11.554 8.145 14.238 13.318-5.15.383-9.092 3.271-8.833 6.509l.313 3.917c.62 7.762-2.481 15.58-8.905 22.451-7.384 7.898-7.986 17.421-1.595 25.229l6.944 7.777c.497.556.962 1.312 1.393 2.19l6.629 67.511c1.418 14.441 10.589 26.95 23.936 32.645l16.979 7.245c10.539 4.497 22.728-.401 27.225-10.94 4.496-10.541-.402-22.73-10.942-27.227z" fill="url(#SVGID_22_)"/><path d="m110.451 250.582c-5.15.383-9.092 3.271-8.833 6.509l.313 3.917c.62 7.762-2.481 15.58-8.905 22.451-7.384 7.898-7.986 17.421-1.595 25.229l.603.737 18.147-13.817 2.584-8.075c2.557-7.991 4.818-17.781 4.392-25.973-.17-3.275-1.182-11.325-6.434-10.995-.059.004-.272.017-.272.017z" fill="url(#SVGID_23_)"/><path d="m143.872 343.218-41.387 3.079-1.548-15.793 41.378-3.087z" fill="url(#SVGID_24_)"/><path d="m91.373 326.645c.111 2.136 1.097 4.01 2.588 5.302 1.456 1.258 3.392 1.962 5.464 1.812l44.733-3.259c4.14-.299 7.258-3.898 6.959-8.042-.149-2.072-1.124-3.886-2.581-5.147-1.456-1.258-3.392-1.962-5.461-1.813l-1.889.136c.259 3.586-2.438 6.703-6.024 6.961l-28.433 2.083c-3.586.259-6.703-2.438-6.961-6.024l-1.276.092c-4.107.298-7.333 3.786-7.119 7.899z" fill="url(#SVGID_25_)"/><path d="m145.437 359.211-41.378 3.088-1.556-15.802 41.386-3.079z" fill="url(#SVGID_26_)"/><path d="m93.144 344.937c.111 2.136 1.097 4.01 2.588 5.302 1.456 1.258 3.392 1.962 5.464 1.812l44.733-3.259c4.14-.299 7.258-3.898 6.959-8.042-.149-2.072-1.124-3.886-2.581-5.147-1.456-1.258-3.392-1.962-5.461-1.813l-1.889.136c.259 3.586-2.438 6.703-6.024 6.961l-28.433 2.083c-3.586.259-6.703-2.439-6.961-6.024l-1.276.092c-4.106.298-7.332 3.787-7.119 7.899z" fill="url(#SVGID_27_)"/></g></g><g><path d="m420.833 249.131c3.207.472 3.998 4.939 1.142 6.472-.364.196-.733.333-1.097.384l-10.521 1.528c-4.324.629-8.185 2.092-11.25 4.208-1.915-4.497.901-8.937 6.534-10.247 1.433-.333 2.901-.614 4.401-.84l10.078-1.519c.212-.032.453-.025.713.014z" fill="url(#SVGID_28_)"/><path d="m423.292 239.95-14.189 4.575c-2.111.681-4.154 1.424-6.123 2.226-7.743 3.151-10.067 9.6-5.417 14.893 3.64-3.522 8.716-6.408 14.813-8.341l13.113-4.156c.332-.082.645-.195.939-.335 4.447-2.115 2.758-8.992-2.167-9-.343-.001-.669.041-.969.138z" fill="url(#SVGID_29_)"/><path d="m420.922 230.123-15.456 8.286c-2.299 1.233-4.486 2.533-6.556 3.893-8.138 5.349-8.095 13.908.038 19.776 2.905-5.093 7.869-9.637 14.525-13.156l14.265-7.539c.426-.225.865-.741 1.297-1.428 3.055-4.861-1.037-11.303-6.69-10.301-.524.092-1.003.244-1.423.469z" fill="url(#SVGID_30_)"/><g><path d="m346.404 387.89 16.007-6.83 7.933-80.784c.461-7.817.928-15.214 1.281-19.633l1.286-16.102c1.202-15.039 11.905-28.862 29.757-38.428l14.658-7.855c1.042-.558 2.225-.952 3.473-1.186 6.892-1.292 11.858 6.855 7.275 12.162-.479.555-1.017 1.015-1.619 1.334l-12.669 6.697c-6.68 3.531-11.554 8.145-14.238 13.318 5.15.383 9.092 3.271 8.833 6.509l-.313 3.917c-.62 7.762 2.481 15.58 8.905 22.451 7.384 7.898 7.986 17.421 1.595 25.229l-6.944 7.777c-.497.556-.962 1.312-1.393 2.19l-6.629 67.511c-1.418 14.441-10.589 26.95-23.936 32.645l-16.979 7.245c-10.539 4.497-22.728-.401-27.225-10.94-4.496-10.541.402-22.73 10.942-27.227z" fill="url(#SVGID_31_)"/><path d="m399.549 250.582c5.15.383 9.092 3.271 8.833 6.509l-.313 3.917c-.62 7.762 2.481 15.58 8.905 22.451 7.384 7.898 7.986 17.421 1.595 25.229l-.603.737-18.147-13.817-2.584-8.075c-2.557-7.991-4.818-17.781-4.392-25.973.17-3.275 1.182-11.325 6.434-10.995.059.004.272.017.272.017z" fill="url(#SVGID_32_)"/><path d="m366.128 343.218 41.387 3.079 1.548-15.793-41.378-3.087z" fill="url(#SVGID_33_)"/><path d="m418.627 326.645c-.111 2.136-1.098 4.01-2.588 5.302-1.456 1.258-3.392 1.962-5.464 1.812l-44.733-3.259c-4.14-.299-7.258-3.898-6.959-8.042.149-2.072 1.124-3.886 2.581-5.147 1.456-1.258 3.392-1.962 5.461-1.813l1.889.136c-.259 3.586 2.438 6.703 6.024 6.961l28.433 2.083c3.586.259 6.703-2.438 6.961-6.024l1.276.092c4.107.298 7.333 3.786 7.119 7.899z" fill="url(#SVGID_34_)"/><path d="m364.563 359.211 41.378 3.088 1.556-15.802-41.386-3.079z" fill="url(#SVGID_35_)"/><path d="m416.856 344.937c-.111 2.136-1.097 4.01-2.588 5.302-1.456 1.258-3.392 1.962-5.464 1.812l-44.733-3.259c-4.141-.299-7.258-3.898-6.959-8.042.149-2.072 1.124-3.886 2.581-5.147 1.456-1.258 3.392-1.962 5.461-1.813l1.889.136c-.259 3.586 2.439 6.703 6.024 6.961l28.433 2.083c3.586.259 6.703-2.439 6.961-6.024l1.276.092c4.107.298 7.332 3.787 7.119 7.899z" fill="url(#SVGID_36_)"/></g></g></g><g><g><path d="m27.278 369.43c-1.705 2.756 1.201 6.24 4.213 5.044.384-.153.727-.346 1.001-.591l7.948-7.061c3.267-2.901 6.873-4.911 10.467-5.892-2.205-4.362-7.414-5.07-12.046-1.606-1.178.881-2.339 1.823-3.478 2.824l-7.656 6.728c-.161.14-.31.33-.449.554z" fill="url(#SVGID_37_)"/><path d="m18.673 365.394 12.641-7.903c1.881-1.176 3.766-2.259 5.648-3.249 7.399-3.891 13.828-1.513 14.88 5.454-5.039.515-10.517 2.536-15.924 5.953l-11.628 7.351c-.276.201-.565.367-.861.502-4.483 2.038-8.654-3.685-5.486-7.456.22-.263.463-.485.73-.652z" fill="url(#SVGID_38_)"/><path d="m12.685 357.249 16.295-6.48c2.425-.964 4.828-1.799 7.202-2.505 9.334-2.777 15.852 2.771 15.098 12.772-5.766-1.06-12.44-.192-19.42 2.63l-14.957 6.051c-.446.181-1.124.184-1.928.072-5.686-.795-7.975-8.076-3.567-11.754.41-.341.835-.61 1.277-.786z" fill="url(#SVGID_39_)"/><g><path d="m181.35 401.923-15.537 7.84-66.889-45.988c-6.275-4.685-12.232-9.094-15.839-11.671l-13.142-9.392c-12.275-8.772-29.743-9.493-48.561-2.006l-15.452 6.148c-1.098.437-2.162 1.088-3.145 1.892-5.429 4.438-2.399 13.485 4.613 13.401.733-.009 1.432-.123 2.063-.379l13.284-5.373c7.005-2.833 13.674-3.587 19.359-2.307-3.026 4.185-3.357 9.06-.714 10.949l3.197 2.285c6.335 4.527 10.316 11.936 11.431 21.277 1.282 10.736 8.177 17.333 18.265 17.476l10.422-.298c.745-.021 1.623.11 2.572.346l55.899 38.432c11.957 8.221 27.432 9.268 40.388 2.731l16.481-8.316c10.23-5.162 14.338-17.639 9.176-27.869-5.163-10.232-17.641-14.34-27.871-9.178z" fill="url(#SVGID_40_)"/><path d="m42.103 354.088c-3.026 4.185-3.357 9.06-.714 10.949l3.197 2.285c6.335 4.527 10.316 11.936 11.431 21.277 1.282 10.736 8.176 17.333 18.265 17.476l.952.013 1.127-22.781-4.511-7.179c-4.463-7.104-10.493-15.142-17.032-20.095-2.614-1.98-9.422-6.394-12.554-2.165-.034.049-.161.22-.161.22z" fill="url(#SVGID_41_)"/><path d="m134.479 388.222-24.314 33.633-13.074-8.993 24.301-33.632z" fill="url(#SVGID_42_)"/><path d="m87.976 417.69c1.705 1.292 3.774 1.745 5.722 1.438 1.9-.303 3.686-1.33 4.907-3.01l26.332-36.309c2.44-3.359 1.696-8.063-1.665-10.504-1.681-1.221-3.696-1.645-5.599-1.343-1.9.303-3.686 1.33-4.905 3.008l-1.113 1.533c2.909 2.113 3.554 6.184 1.442 9.092l-16.728 23.085c-2.113 2.909-6.184 3.554-9.092 1.442l-.752 1.035c-2.42 3.332-1.831 8.046 1.451 10.533z" fill="url(#SVGID_43_)"/><path d="m147.718 397.33-24.302 33.632-13.087-8.992 24.314-33.633z" fill="url(#SVGID_44_)"/><path d="m103.107 428.122c1.705 1.292 3.774 1.745 5.722 1.438 1.9-.303 3.686-1.33 4.907-3.01l26.332-36.309c2.44-3.359 1.696-8.063-1.665-10.504-1.681-1.221-3.696-1.645-5.599-1.343-1.9.303-3.686 1.33-4.905 3.008l-1.113 1.533c2.909 2.113 3.554 6.184 1.442 9.092l-16.728 23.085c-2.113 2.909-6.184 3.554-9.092 1.442l-.752 1.035c-2.421 3.332-1.832 8.046 1.451 10.533z" fill="url(#SVGID_45_)"/></g></g><g><path d="m482.722 369.43c1.705 2.756-1.201 6.24-4.213 5.044-.384-.153-.727-.346-1.001-.591l-7.948-7.061c-3.267-2.901-6.873-4.911-10.467-5.892 2.205-4.362 7.414-5.07 12.046-1.606 1.178.881 2.339 1.823 3.478 2.824l7.656 6.728c.161.14.31.33.449.554z" fill="url(#SVGID_46_)"/><path d="m491.327 365.394-12.641-7.903c-1.881-1.176-3.766-2.259-5.648-3.249-7.399-3.891-13.828-1.513-14.88 5.454 5.039.515 10.517 2.536 15.924 5.953l11.628 7.351c.276.201.565.367.861.502 4.483 2.038 8.654-3.685 5.486-7.456-.22-.263-.463-.485-.73-.652z" fill="url(#SVGID_47_)"/><path d="m497.315 357.249-16.295-6.48c-2.425-.964-4.828-1.799-7.202-2.505-9.334-2.777-15.852 2.771-15.098 12.772 5.766-1.06 12.44-.192 19.419 2.63l14.957 6.051c.446.181 1.124.184 1.928.072 5.686-.795 7.975-8.076 3.567-11.754-.409-.341-.834-.61-1.276-.786z" fill="url(#SVGID_48_)"/><g><path d="m328.65 401.923 15.537 7.84 66.889-45.988c6.275-4.685 12.232-9.094 15.839-11.671l13.142-9.392c12.275-8.772 29.743-9.493 48.561-2.006l15.452 6.148c1.098.437 2.162 1.088 3.145 1.892 5.429 4.438 2.399 13.485-4.613 13.401-.733-.009-1.432-.123-2.063-.379l-13.284-5.373c-7.005-2.833-13.674-3.587-19.359-2.307 3.026 4.185 3.357 9.06.714 10.949l-3.197 2.285c-6.335 4.527-10.316 11.936-11.431 21.277-1.282 10.736-8.177 17.333-18.265 17.476l-10.422-.298c-.745-.021-1.623.11-2.572.346l-55.899 38.432c-11.957 8.221-27.432 9.268-40.388 2.731l-16.481-8.316c-10.23-5.162-14.338-17.639-9.176-27.869 5.163-10.232 17.641-14.34 27.871-9.178z" fill="url(#SVGID_49_)"/><path d="m467.897 354.088c3.026 4.185 3.357 9.06.714 10.949l-3.197 2.285c-6.335 4.527-10.316 11.936-11.431 21.277-1.282 10.736-8.176 17.333-18.265 17.476l-.952.013-1.127-22.781 4.511-7.179c4.463-7.104 10.493-15.142 17.032-20.095 2.614-1.98 9.422-6.394 12.554-2.165.034.049.161.22.161.22z" fill="url(#SVGID_50_)"/><path d="m375.521 388.222 24.314 33.633 13.074-8.993-24.301-33.632z" fill="url(#SVGID_51_)"/><path d="m422.024 417.69c-1.705 1.292-3.774 1.745-5.722 1.438-1.9-.303-3.686-1.33-4.907-3.01l-26.332-36.309c-2.44-3.359-1.696-8.063 1.665-10.504 1.681-1.221 3.696-1.645 5.599-1.343 1.9.303 3.686 1.33 4.905 3.008l1.113 1.533c-2.909 2.113-3.554 6.184-1.442 9.092l16.728 23.085c2.113 2.909 6.184 3.554 9.092 1.442l.752 1.035c2.42 3.332 1.831 8.046-1.451 10.533z" fill="url(#SVGID_52_)"/><path d="m362.282 397.33 24.302 33.632 13.087-8.992-24.314-33.633z" fill="url(#SVGID_53_)"/><path d="m406.893 428.122c-1.705 1.292-3.774 1.745-5.722 1.438-1.9-.303-3.686-1.33-4.907-3.01l-26.332-36.309c-2.44-3.359-1.696-8.063 1.665-10.504 1.681-1.221 3.696-1.645 5.599-1.343 1.9.303 3.686 1.33 4.905 3.008l1.113 1.533c-2.909 2.113-3.554 6.184-1.442 9.092l16.728 23.085c2.113 2.909 6.184 3.554 9.092 1.442l.752 1.035c2.421 3.332 1.832 8.046-1.451 10.533z" fill="url(#SVGID_54_)"/></g></g></g><g><path d="m31.502 496.433c1.062 3.062 5.598 3.006 6.572-.086.124-.394.19-.782.173-1.15l-.463-10.622c-.189-4.365.527-8.431 2.034-11.838-4.775-1.042-8.611 2.553-8.847 8.332-.06 1.47-.062 2.965-.004 4.48l.389 10.185c.007.215.059.45.146.699z" fill="url(#SVGID_55_)"/><path d="m22.942 500.563 1.845-14.793c.275-2.201.624-4.347 1.043-6.431 1.65-8.195 7.551-11.682 13.62-8.102-2.78 4.234-4.668 9.759-5.429 16.11l-1.634 13.658c-.018.341-.072.67-.154.985-1.248 4.764-8.319 4.388-9.246-.449-.065-.337-.084-.666-.045-.978z" fill="url(#SVGID_56_)"/><path d="m12.845 500.069 5.254-16.731c.782-2.489 1.651-4.88 2.601-7.168 3.735-8.994 12.152-10.549 19.435-3.654-4.461 3.805-7.998 9.53-10.213 16.725l-4.743 15.422c-.141.46-.566.988-1.161 1.541-4.205 3.909-11.298 1.091-11.369-4.65-.007-.531.053-1.031.196-1.485z" fill="url(#SVGID_57_)"/><g><path d="m153.926 397.406-3.722 17.001-77.883 22.876c-7.594 1.912-14.773 3.752-19.049 4.924l-15.579 4.27c-14.551 3.988-26.132 17.084-32.197 36.408l-4.98 15.867c-.354 1.128-.52 2.364-.517 3.634.018 7.012 8.948 10.37 13.307 4.877.456-.574.808-1.189 1.008-1.84l4.214-13.696c2.222-7.222 5.845-12.872 10.426-16.474 1.337 4.988 4.911 8.321 8.044 7.462l3.79-1.039c7.51-2.058 15.769-.471 23.719 4.557 9.138 5.78 18.606 4.593 25.083-3.143l6.344-8.273c.454-.592 1.109-1.19 1.891-1.777l65.086-19.117c13.923-4.089 24.499-15.434 27.602-29.61l3.947-18.033c2.45-11.193-4.637-22.254-15.831-24.704-11.192-2.451-22.253 4.637-24.703 15.83z" fill="url(#SVGID_58_)"/><path d="m28.954 475.252c1.337 4.988 4.911 8.321 8.044 7.463l3.79-1.039c7.51-2.058 15.769-.472 23.719 4.557 9.138 5.78 18.606 4.593 25.083-3.143l.611-.73-16.962-15.248-8.416-1.031c-8.328-1.02-18.368-1.414-26.336.534-3.186.779-10.905 3.276-9.601 8.373.015.057.068.264.068.264z" fill="url(#SVGID_59_)"/><path d="m113.722 425.124 10.751 40.084-15.226 4.47-10.758-40.074z" fill="url(#SVGID_60_)"/><path d="m107.241 479.795c2.078-.508 3.735-1.827 4.726-3.532.964-1.666 1.294-3.699.76-5.706l-11.553-43.339c-1.066-4.012-5.185-6.403-9.2-5.336-2.007.534-3.608 1.83-4.575 3.496-.964 1.666-1.294 3.699-.761 5.703l.487 1.831c3.475-.924 7.04 1.144 7.964 4.619l7.355 27.544c.924 3.475-1.144 7.04-4.619 7.964l.329 1.236c1.058 3.98 5.087 6.497 9.087 5.52z" fill="url(#SVGID_61_)"/><path d="m129.142 420.601 10.758 40.074-15.233 4.479-10.752-40.084z" fill="url(#SVGID_62_)"/><path d="m124.881 474.639c2.078-.508 3.735-1.827 4.726-3.532.964-1.666 1.294-3.699.76-5.706l-11.553-43.339c-1.066-4.012-5.185-6.403-9.2-5.336-2.007.534-3.608 1.83-4.575 3.496-.964 1.666-1.294 3.699-.761 5.703l.487 1.831c3.475-.924 7.04 1.144 7.964 4.619l7.355 27.544c.924 3.475-1.144 7.04-4.619 7.964l.329 1.236c1.058 3.98 5.087 6.497 9.087 5.52z" fill="url(#SVGID_63_)"/></g></g><g><path d="m478.498 496.433c-1.062 3.062-5.598 3.006-6.572-.086-.124-.394-.19-.782-.173-1.15l.463-10.622c.189-4.365-.527-8.431-2.034-11.838 4.775-1.042 8.611 2.553 8.847 8.332.06 1.47.062 2.965.004 4.48l-.389 10.185c-.007.215-.059.45-.146.699z" fill="url(#SVGID_64_)"/><path d="m487.058 500.563-1.845-14.793c-.275-2.201-.624-4.347-1.043-6.431-1.65-8.195-7.551-11.682-13.62-8.102 2.78 4.234 4.668 9.759 5.429 16.11l1.634 13.658c.018.341.072.67.154.985 1.248 4.764 8.319 4.388 9.246-.449.065-.337.084-.666.045-.978z" fill="url(#SVGID_65_)"/><path d="m497.155 500.069-5.254-16.731c-.782-2.489-1.651-4.88-2.601-7.168-3.735-8.994-12.152-10.549-19.435-3.654 4.461 3.805 7.998 9.53 10.213 16.725l4.743 15.422c.141.46.566.988 1.161 1.541 4.205 3.909 11.298 1.091 11.369-4.65.007-.531-.053-1.031-.196-1.485z" fill="url(#SVGID_66_)"/><g><path d="m356.074 397.406 3.722 17.001 77.883 22.876c7.594 1.912 14.773 3.752 19.049 4.924l15.579 4.27c14.551 3.988 26.132 17.084 32.197 36.408l4.98 15.867c.354 1.128.52 2.364.517 3.634-.018 7.012-8.948 10.37-13.307 4.877-.456-.574-.807-1.189-1.008-1.84l-4.214-13.696c-2.222-7.222-5.845-12.872-10.426-16.474-1.337 4.988-4.911 8.321-8.044 7.462l-3.79-1.039c-7.51-2.058-15.769-.471-23.719 4.557-9.138 5.78-18.606 4.593-25.083-3.143l-6.344-8.273c-.454-.592-1.109-1.19-1.891-1.777l-65.086-19.117c-13.923-4.089-24.499-15.434-27.602-29.61l-3.947-18.033c-2.45-11.193 4.637-22.254 15.831-24.704 11.192-2.451 22.253 4.637 24.703 15.83z" fill="url(#SVGID_67_)"/><path d="m481.046 475.252c-1.337 4.988-4.911 8.321-8.044 7.463l-3.79-1.039c-7.51-2.058-15.769-.472-23.719 4.557-9.138 5.78-18.606 4.593-25.083-3.143l-.611-.73 16.962-15.248 8.416-1.031c8.328-1.02 18.368-1.414 26.336.534 3.186.779 10.905 3.276 9.601 8.373-.015.057-.068.264-.068.264z" fill="url(#SVGID_68_)"/><path d="m396.278 425.124-10.751 40.084 15.226 4.47 10.758-40.074z" fill="url(#SVGID_69_)"/><path d="m402.759 479.795c-2.078-.508-3.735-1.827-4.726-3.532-.964-1.666-1.294-3.699-.76-5.706l11.553-43.339c1.066-4.012 5.185-6.403 9.2-5.336 2.007.534 3.608 1.83 4.575 3.496.964 1.666 1.294 3.699.761 5.703l-.487 1.831c-3.475-.924-7.04 1.144-7.964 4.619l-7.355 27.544c-.924 3.475 1.144 7.04 4.619 7.964l-.329 1.236c-1.058 3.98-5.087 6.497-9.087 5.52z" fill="url(#SVGID_70_)"/><path d="m380.858 420.601-10.758 40.074 15.233 4.479 10.752-40.084z" fill="url(#SVGID_71_)"/><path d="m385.119 474.639c-2.078-.508-3.735-1.827-4.726-3.532-.964-1.666-1.294-3.699-.76-5.706l11.553-43.339c1.066-4.012 5.185-6.403 9.2-5.336 2.007.534 3.608 1.83 4.575 3.496.964 1.666 1.294 3.699.761 5.703l-.487 1.831c-3.475-.924-7.04 1.144-7.964 4.619l-7.355 27.544c-.924 3.475 1.144 7.04 4.619 7.964l-.329 1.236c-1.058 3.98-5.087 6.497-9.087 5.52z" fill="url(#SVGID_72_)"/></g></g><g><path d="m348.929 361.624c-.292-7.735-.421-15.473-.39-23.214.085-21.437.129-67.67.129-69.574 0-59.383-41.936-107.523-93.668-107.523s-93.668 48.14-93.668 107.523c0 1.903.043 48.137.129 69.574.031 7.741-.099 15.478-.39 23.213l-5.153 116.689c-.696 4.575 2.471 8.885 7.285 9.916l42.573 9.114c32.492 6.956 65.956 6.956 98.448 0l42.573-9.114c4.814-1.031 7.981-5.341 7.285-9.916z" fill="url(#SVGID_73_)"/><path d="m320.132 407.908h-10.04c-16.61-.072-30.2-12.946-31.407-29.26-.029-.354-.051-.716-.058-1.07-.022-.426-.029-.86-.029-1.294v-14.174h-23.597-.003-23.597v14.175c0 .434-.007.867-.029 1.294-.007.354-.029.716-.058 1.07-1.207 16.314-14.796 29.188-31.407 29.26h-10.04c-28.588 0-51.769 23.174-51.769 51.769v45.198c0 2.826 2.299 5.125 5.132 5.125h111.767.003 111.767c2.834 0 5.132-2.299 5.132-5.125v-45.198c.002-28.596-23.179-51.77-51.767-51.77z" fill="url(#SVGID_74_)"/><path d="m255 423.808c19.995 0 37.977-6.273 50.437-16.262-14.431-2.195-25.66-14.137-26.752-28.898-.029-.354-.051-.716-.058-1.07-.022-.426-.029-.86-.029-1.294v-14.174h-23.597-.003-23.597v14.175c0 .434-.007.867-.029 1.294-.007.354-.029.716-.058 1.07-1.092 14.76-12.321 26.703-26.752 28.898 12.461 9.988 30.443 16.261 50.438 16.261z" fill="url(#SVGID_75_)"/><path d="m366.769 510c2.833 0 5.132-2.298 5.132-5.125v-45.198c0-28.595-23.181-51.769-51.769-51.769h-10.04c-16.611-.072-30.2-12.946-31.407-29.26-.029-.354-.051-.716-.058-1.07-.022-.426-.029-.86-.029-1.294v-14.174h-23.597-.003-23.598v14.175c0 .434-.007.867-.029 1.294-.007.354-.029.716-.058 1.07-.207 2.796-.785 5.486-1.672 8.033l123.32 123.318z" fill="url(#SVGID_76_)"/></g><g><path d="m346.666 411.729c-6.825-2.955-14.351-4.596-22.262-4.596h-10.894c-6.255-.027-12.114-1.728-17.154-4.677-2.815-1.647-6.369-1.186-8.658 1.136-7.338 7.442-19.249 12.282-32.697 12.282-13.933 0-26.212-5.196-33.468-13.097-2.357-2.566-6.198-3.024-9.123-1.131-5.322 3.444-11.656 5.457-18.461 5.487h-10.894c-6.638 0-13.005 1.156-18.914 3.274-6.933 2.484-9.113 11.068-4.252 16.599 15.297 17.403 52.302 34.366 95.526 34.366 42.347 0 78.723-16.281 94.565-33.307 4.778-5.136 3.124-13.549-3.314-16.336z" fill="url(#SVGID_77_)"/><path d="m255 464.865c-42.082 0-81.121-16.078-101.883-41.959-1.815-2.262-1.928-6.084-.254-8.536 1.675-2.451 4.503-2.605 6.319-.343 19.177 23.906 55.893 38.757 95.818 38.757s76.641-14.851 95.818-38.757c1.815-2.263 4.644-2.109 6.319.343s1.561 6.273-.254 8.536c-20.762 25.881-59.801 41.959-101.883 41.959z" fill="url(#SVGID_78_)"/></g><path d="m356.88 422.904c-.278.348-.557.687-.844 1.035-13.053 15.741-32.942 27.751-56.119 34.569l-42.674-42.674c12.523-.504 23.524-5.218 30.455-12.245.731-.739 1.591-1.296 2.522-1.635 1.965-.765 4.218-.617 6.131.504 5.044 2.948 10.905 4.644 17.158 4.67h10.897c7.905 0 15.436 1.644 22.263 4.6 1.513.661 2.757 1.635 3.722 2.809.139-.174.287-.339.426-.513 1.818-2.261 4.644-2.105 6.322.348 1.671 2.453 1.558 6.271-.259 8.532z" fill="url(#SVGID_79_)"/><g><g><circle cx="212.348" cy="427.543" fill="url(#SVGID_80_)" r="11.683"/><g><g><circle cx="212.348" cy="427.543" fill="url(#SVGID_81_)" r="7.951"/><circle cx="212.348" cy="427.543" fill="url(#SVGID_82_)" r="6.636"/><path d="m215.905 420.431c.536 1.07.839 2.278.839 3.557 0 4.391-3.56 7.951-7.951 7.951-1.279 0-2.487-.302-3.557-.839 1.306 2.606 4 4.394 7.113 4.394 4.391 0 7.951-3.56 7.951-7.951-.001-3.112-1.79-5.807-4.395-7.112z" fill="url(#SVGID_83_)"/></g></g></g><g><circle cx="255" cy="435.37" fill="url(#SVGID_84_)" r="11.683"/><g><g><circle cx="255" cy="435.37" fill="url(#SVGID_85_)" r="7.951"/><circle cx="255" cy="435.37" fill="url(#SVGID_86_)" r="6.636"/><path d="m258.557 428.258c.536 1.07.839 2.278.839 3.557 0 4.391-3.56 7.951-7.951 7.951-1.279 0-2.487-.302-3.557-.839 1.306 2.606 4 4.394 7.113 4.394 4.391 0 7.951-3.56 7.951-7.951-.001-3.112-1.79-5.807-4.395-7.112z" fill="url(#SVGID_87_)"/></g></g></g><g><circle cx="297.652" cy="427.543" fill="url(#SVGID_88_)" r="11.683"/><g><g><circle cx="297.652" cy="427.543" fill="url(#SVGID_89_)" r="7.951"/><circle cx="297.652" cy="427.543" fill="url(#SVGID_90_)" r="6.636"/><path d="m301.209 420.431c.536 1.07.839 2.278.839 3.557 0 4.391-3.56 7.951-7.951 7.951-1.279 0-2.487-.302-3.557-.839 1.306 2.606 4 4.394 7.113 4.394 4.391 0 7.951-3.56 7.951-7.951-.001-3.112-1.79-5.807-4.395-7.112z" fill="url(#SVGID_91_)"/></g></g></g></g><path d="m294.192 396.974c-1.406 0-2.741.677-3.519 1.848-5.53 8.322-19.412 14.227-35.673 14.227s-30.143-5.905-35.673-14.227c-.778-1.171-2.113-1.848-3.519-1.848-3.762 0-5.688 4.49-3.115 7.234 8.168 8.709 24.047 14.619 42.307 14.619s34.139-5.91 42.307-14.619c2.573-2.744.647-7.234-3.115-7.234z" fill="url(#SVGID_92_)"/><g><g><path d="m234.384 382.486c-1.442 1.954-2.774 3.985-3.893 6.141-3.388 6.521-9.044 19.307-9.044 31.972v89.401h-23.602v-101.871c0-11.882 6.959-22.663 17.787-27.555l14.706-6.645s4.04 2.287 6.44 3.125c0 0 .007 2.179-2.394 5.432z" fill="url(#SVGID_93_)"/><path d="m230.491 388.627c1.119-2.155 2.451-4.187 3.893-6.141 2.401-3.253 2.394-5.431 2.394-5.431-1.51-.527-3.667-1.627-5.061-2.371l-13.037 5.89c-10.828 4.892-17.787 15.673-17.787 27.555v101.871h20.553s0-71.323 0-89.401c0-12.665 5.657-25.451 9.045-31.972z" fill="url(#SVGID_94_)"/><path d="m230.491 388.627c1.119-2.155 2.451-4.187 3.893-6.141 2.401-3.253 2.394-5.431 2.394-5.431-1.775-.62-4.44-2.028-5.712-2.722l-10.764 6.242c-8.437 4.892-13.859 15.673-13.859 27.555v101.87h15.003s0-71.323 0-89.401c0-12.665 5.657-25.451 9.045-31.972z" fill="url(#SVGID_95_)"/><path d="m230.491 388.627c1.119-2.155 2.451-4.187 3.893-6.141 1.366-1.851 1.952-3.353 2.204-4.304l-5.295 2.393c-10.828 4.892-17.787 15.673-17.787 27.555v101.87h7.941s0-71.323 0-89.401c-.001-12.665 5.656-25.451 9.044-31.972z" fill="url(#SVGID_96_)"/></g><g><path d="m275.616 382.486c1.442 1.954 2.774 3.985 3.893 6.141 3.388 6.521 9.044 19.307 9.044 31.972v89.401h23.602v-101.871c0-11.882-6.959-22.663-17.787-27.555l-14.706-6.645s-4.04 2.287-6.44 3.125c0 0-.007 2.179 2.394 5.432z" fill="url(#SVGID_97_)"/><path d="m279.509 388.627c-1.12-2.155-2.451-4.187-3.893-6.141-2.401-3.253-2.394-5.431-2.394-5.431 1.51-.527 3.667-1.627 5.061-2.371l13.037 5.89c10.828 4.892 17.787 15.673 17.787 27.555v101.871h-20.553s0-71.323 0-89.401c0-12.665-5.657-25.451-9.045-31.972z" fill="url(#SVGID_98_)"/><path d="m279.509 388.627c-1.12-2.155-2.451-4.187-3.893-6.141-2.401-3.253-2.394-5.431-2.394-5.431 1.775-.62 4.44-2.028 5.712-2.722l10.764 6.242c8.437 4.892 13.859 15.673 13.859 27.555v101.87h-15.003s0-71.323 0-89.401c0-12.665-5.657-25.451-9.045-31.972z" fill="url(#SVGID_99_)"/><path d="m279.509 388.627c-1.12-2.155-2.451-4.187-3.893-6.141-1.366-1.851-1.952-3.353-2.204-4.304l5.295 2.393c10.828 4.892 17.787 15.673 17.787 27.555v101.87h-7.941s0-71.323 0-89.401c.001-12.665-5.656-25.451-9.044-31.972z" fill="url(#SVGID_100_)"/></g></g><path d="m255 391.061c-41.589 0-75.304-33.714-75.304-75.303v-56.095c0-41.589 33.714-75.304 75.303-75.304 41.589 0 75.303 33.715 75.303 75.304v56.095c.002 41.589-33.713 75.303-75.302 75.303z" fill="url(#SVGID_101_)"/><path d="m255 161.314c-51.731 0-93.668 48.14-93.668 107.523 0 .38.002 2.529.005 5.89 31.103 3.117 93.663-27.92 93.663-27.92s62.56 31.038 93.662 27.919c.003-3.361.005-5.51.005-5.89.001-59.383-41.936-107.522-93.667-107.522z" fill="url(#SVGID_102_)"/><g><g><g><path d="m230.539 290.692c0 7.383-5.985 13.368-13.368 13.368s-13.369-5.985-13.369-13.368 5.985-13.369 13.369-13.369c7.383 0 13.368 5.985 13.368 13.369z" fill="url(#SVGID_103_)"/><path d="m228.328 290.692c0 6.162-4.995 11.157-11.157 11.157s-11.157-4.995-11.157-11.157 4.995-11.157 11.157-11.157 11.157 4.995 11.157 11.157z" fill="url(#SVGID_104_)"/><path d="m223.151 278.733c.902 1.8 1.41 3.83 1.41 5.98 0 7.383-5.985 13.368-13.368 13.368-2.15 0-4.181-.508-5.98-1.41 2.195 4.381 6.725 7.388 11.959 7.388 7.383 0 13.368-5.985 13.368-13.368-.001-5.233-3.008-9.763-7.389-11.958z" fill="url(#SVGID_105_)"/></g></g><g><g><path d="m306.198 290.692c0 7.383-5.985 13.368-13.368 13.368s-13.369-5.985-13.369-13.368 5.985-13.369 13.369-13.369c7.382 0 13.368 5.985 13.368 13.369z" fill="url(#SVGID_106_)"/><path d="m303.986 290.692c0 6.162-4.995 11.157-11.157 11.157s-11.157-4.995-11.157-11.157 4.995-11.157 11.157-11.157c6.162-.001 11.157 4.995 11.157 11.157z" fill="url(#SVGID_107_)"/><path d="m298.809 278.733c.902 1.8 1.41 3.83 1.41 5.98 0 7.383-5.985 13.368-13.368 13.368-2.15 0-4.181-.508-5.98-1.41 2.195 4.381 6.725 7.388 11.959 7.388 7.383 0 13.368-5.985 13.368-13.368 0-5.233-3.008-9.763-7.389-11.958z" fill="url(#SVGID_108_)"/></g></g></g><path d="m259.278 342.683h-8.556c-6.857 0-12.198-5.947-11.465-12.764l4.473-41.583h22.539l4.473 41.583c.734 6.817-4.608 12.764-11.464 12.764z" fill="url(#SVGID_109_)"/><path d="m255 158.817c-31.353 0-39.822-24.13-15.362-37.941 8.462-4.78 12.265-11.36 13.97-16.306-.003-.003-.003-.003 0-.003.024-.067.044-.134.068-.199.207-.456.723-.78 1.324-.78s1.117.324 1.324.78c.024.064.044.131.068.199.003 0 .003 0 0 .003 1.705 4.946 5.508 11.526 13.97 16.306 24.46 13.81 15.991 37.941-15.362 37.941z" fill="url(#SVGID_110_)"/><ellipse cx="255" cy="155.071" fill="url(#SVGID_111_)" rx="26.674" ry="15.089"/><g><g><g><path d="m166.929 222.118c8.123-.48 15.554 2.945 20.391 8.619.624.732.704 2.094.171 2.893-4.135 6.205-11.11 10.482-19.233 10.962s-15.554-2.945-20.391-8.619c-.624-.732-.704-2.094-.171-2.893 4.135-6.204 11.11-10.482 19.233-10.962z" fill="url(#SVGID_112_)"/><path d="m187.49 233.631c-4.135 6.205-11.11 10.482-19.233 10.962s-15.553-2.945-20.391-8.619c-.312-.366-.488-.889-.519-1.421l40.491-2.395c.032.532-.081 1.073-.348 1.473z" fill="url(#SVGID_113_)"/></g><g><path d="m173.502 206.533c7.654 2.762 13.131 8.841 15.338 15.962.285.918-.179 2.202-.984 2.726-6.247 4.071-14.344 5.251-21.997 2.488s-13.131-8.841-15.338-15.962c-.285-.918.179-2.202.984-2.726 6.247-4.071 14.344-5.25 21.997-2.488z" fill="url(#SVGID_114_)"/><path d="m187.857 225.222c-6.247 4.071-14.344 5.251-21.997 2.488-7.654-2.762-13.131-8.841-15.338-15.962-.142-.459-.098-1.01.083-1.511l38.153 13.769c-.181.501-.498.953-.901 1.216z" fill="url(#SVGID_115_)"/></g><g><path d="m185.69 194.803c5.944 5.557 8.58 13.303 7.799 20.718-.101.956-1.032 1.953-1.979 2.117-7.346 1.277-15.252-.832-21.196-6.389s-8.58-13.303-7.799-20.718c.101-.956 1.032-1.953 1.979-2.117 7.347-1.277 15.252.833 21.196 6.389z" fill="url(#SVGID_116_)"/><path d="m191.51 217.639c-7.346 1.277-15.252-.832-21.196-6.389s-8.58-13.303-7.799-20.718c.05-.478.308-.966.672-1.355l29.63 27.701c-.364.388-.833.679-1.307.761z" fill="url(#SVGID_117_)"/></g><g><path d="m201.516 188.832c3.27 7.451 2.638 15.609-1.004 22.115-.47.839-1.719 1.387-2.654 1.165-7.254-1.724-13.687-6.78-16.958-14.231-3.27-7.451-2.638-15.609 1.004-22.115.47-.839 1.719-1.387 2.654-1.165 7.255 1.724 13.688 6.78 16.958 14.231z" fill="url(#SVGID_118_)"/><path d="m197.858 212.112c-7.254-1.724-13.687-6.78-16.958-14.231-3.27-7.451-2.638-15.609 1.004-22.115.235-.419.664-.766 1.152-.98l16.303 37.141c-.487.214-1.033.296-1.501.185z" fill="url(#SVGID_119_)"/></g><g><path d="m218.414 189.586c.067 8.136-3.732 15.384-9.645 19.926-.762.586-2.127.597-2.898.024-5.986-4.445-9.904-11.629-9.97-19.765-.067-8.136 3.732-15.384 9.645-19.926.762-.586 2.127-.597 2.898-.024 5.986 4.445 9.904 11.629 9.97 19.765z" fill="url(#SVGID_120_)"/><path d="m205.871 209.536c-5.986-4.445-9.904-11.629-9.97-19.765-.067-8.136 3.732-15.384 9.645-19.926.381-.293.913-.442 1.446-.446l.333 40.56c-.534.004-1.068-.136-1.454-.423z" fill="url(#SVGID_121_)"/></g></g><g><g><path d="m343.071 222.118c-8.122-.48-15.553 2.945-20.391 8.619-.624.732-.704 2.094-.171 2.893 4.135 6.205 11.11 10.482 19.233 10.962 8.122.48 15.553-2.945 20.391-8.619.624-.732.704-2.094.171-2.893-4.135-6.204-11.11-10.482-19.233-10.962z" fill="url(#SVGID_122_)"/><path d="m322.51 233.631c4.135 6.205 11.11 10.482 19.233 10.962s15.553-2.945 20.391-8.619c.312-.366.488-.889.519-1.421l-40.491-2.395c-.032.532.081 1.073.348 1.473z" fill="url(#SVGID_123_)"/></g><g><path d="m336.498 206.533c-7.654 2.762-13.131 8.841-15.338 15.962-.285.918.179 2.202.984 2.726 6.247 4.071 14.344 5.251 21.997 2.488 7.654-2.762 13.131-8.841 15.338-15.962.285-.918-.179-2.202-.984-2.726-6.247-4.071-14.344-5.25-21.997-2.488z" fill="url(#SVGID_124_)"/><path d="m322.143 225.222c6.247 4.071 14.344 5.251 21.997 2.488s13.131-8.841 15.338-15.962c.142-.459.098-1.01-.083-1.511l-38.153 13.769c.181.501.498.953.901 1.216z" fill="url(#SVGID_125_)"/></g><g><path d="m324.31 194.803c-5.944 5.557-8.58 13.303-7.799 20.718.101.956 1.032 1.953 1.979 2.117 7.346 1.277 15.252-.832 21.196-6.389s8.58-13.303 7.799-20.718c-.101-.956-1.032-1.953-1.979-2.117-7.347-1.277-15.252.833-21.196 6.389z" fill="url(#SVGID_126_)"/><path d="m318.49 217.639c7.346 1.277 15.252-.832 21.196-6.389s8.58-13.303 7.799-20.718c-.05-.478-.308-.966-.672-1.355l-29.63 27.701c.364.388.833.679 1.307.761z" fill="url(#SVGID_127_)"/></g><g><path d="m308.484 188.832c-3.27 7.451-2.638 15.609 1.004 22.115.47.839 1.719 1.387 2.654 1.165 7.254-1.724 13.687-6.78 16.958-14.231 3.27-7.451 2.638-15.609-1.004-22.115-.47-.839-1.719-1.387-2.654-1.165-7.255 1.724-13.688 6.78-16.958 14.231z" fill="url(#SVGID_128_)"/><path d="m312.142 212.112c7.254-1.724 13.687-6.78 16.958-14.231 3.27-7.451 2.638-15.609-1.004-22.115-.235-.419-.664-.766-1.152-.98l-16.303 37.141c.487.214 1.033.296 1.501.185z" fill="url(#SVGID_129_)"/></g><g><path d="m291.586 189.586c-.067 8.136 3.732 15.384 9.645 19.926.762.586 2.127.597 2.898.024 5.986-4.445 9.904-11.629 9.97-19.765.067-8.136-3.732-15.384-9.645-19.926-.762-.586-2.127-.597-2.898-.024-5.986 4.445-9.904 11.629-9.97 19.765z" fill="url(#SVGID_130_)"/><path d="m304.129 209.536c5.986-4.445 9.904-11.629 9.97-19.765.067-8.136-3.732-15.384-9.645-19.926-.381-.293-.913-.442-1.446-.446l-.333 40.56c.534.004 1.068-.136 1.454-.423z" fill="url(#SVGID_131_)"/></g></g></g><g><ellipse cx="255" cy="190.409" fill="url(#SVGID_132_)" rx="56.129" ry="41.553"/><g fill="url(#SVGID_133_)"><ellipse cx="255" cy="190.409" rx="33.491" ry="41.553"/><ellipse cx="255" cy="190.409" rx="9.874" ry="41.553"/></g></g><ellipse cx="255" cy="210.779" fill="url(#SVGID_135_)" rx="64.627" ry="31.306"/><g><path d="m338.188 259.18h-15.569c-.259-.145-.519-.289-.786-.434-10.212-5.652-21.587-10.04-33.77-12.881-10.487-2.465-21.587-3.78-33.063-3.78s-22.576 1.316-33.063 3.78c-12.184 2.841-23.558 7.228-33.77 12.881-.267.145-.526.289-.786.434h-15.569c0-1.648.063-3.289.181-4.908 2.773-38.62 38.138-69.247 81.601-69.89.471-.007.935-.014 1.406-.014s.935.007 1.406.014c43.464.643 78.828 31.269 81.601 69.89.118 1.619.181 3.26.181 4.908z" fill="url(#SVGID_136_)"/><path d="m321.833 258.746c-10.212-5.652-21.587-10.04-33.77-12.881-10.487-2.465-21.587-3.78-33.063-3.78s-22.576 1.316-33.063 3.78c-12.184 2.841-23.558 7.228-33.77 12.881.031-7.713 1.115-15.143 3.095-22.133 8.547-30.286 33.849-52.246 63.738-52.246s55.192 21.959 63.738 52.246c1.98 6.99 3.064 14.421 3.095 22.133z" fill="url(#SVGID_137_)"/><path d="m288.063 245.866c-10.487-2.465-21.587-3.78-33.063-3.78s-22.576 1.316-33.063 3.78c.605-7.525 1.713-14.652 3.252-21.208 5.601-23.94 16.85-40.29 29.811-40.29s24.21 16.35 29.811 40.29c1.54 6.556 2.647 13.683 3.252 21.208z" fill="url(#SVGID_138_)"/></g><path d="m339.445 263.667c0 .896-.149 1.762-.442 2.604-2.938-5.709-7.553-10.553-13.318-13.893-19.818-11.484-44.25-18.259-70.685-18.259s-50.867 6.776-70.685 18.259c-5.765 3.341-10.38 8.184-13.318 13.893-.292-.843-.442-1.709-.442-2.604 0-30.09 37.809-54.489 84.445-54.489s84.445 24.398 84.445 54.489z" fill="url(#SVGID_139_)"/><g><path d="m169.103 266.613c-.028.191-.056.382-.083.573-.436 3.083 3.143 5.142 5.661 3.263 21.078-15.728 49.302-25.344 80.319-25.344s59.241 9.616 80.319 25.344c2.518 1.879 6.096-.18 5.661-3.263-.027-.191-.055-.382-.083-.573-1.475-9.911-7.532-18.601-16.26-23.733-19.527-11.482-43.596-18.261-69.637-18.261s-50.11 6.779-69.637 18.261c-8.727 5.132-14.784 13.822-16.26 23.733z" fill="url(#SVGID_140_)"/></g><g><circle cx="255" cy="232.563" fill="url(#SVGID_141_)" r="7.596"/><g><g><circle cx="255" cy="232.563" fill="url(#SVGID_142_)" r="5.17"/><circle cx="255" cy="232.563" fill="url(#SVGID_143_)" r="4.315"/><path d="m257.313 227.938c.349.696.545 1.481.545 2.313 0 2.855-2.315 5.17-5.17 5.17-.831 0-1.617-.197-2.313-.545.849 1.694 2.601 2.857 4.625 2.857 2.855 0 5.17-2.315 5.17-5.17 0-2.024-1.163-3.776-2.857-4.625z" fill="url(#SVGID_144_)"/></g></g></g><g><g><g><path d="m252.766 187.484-12.401 17.232c-.643.894-.643 2.078 0 2.972l12.401 17.232c1.08 1.501 3.388 1.501 4.468 0l12.401-17.232c.644-.894.644-2.078 0-2.972l-12.401-17.232c-1.08-1.5-3.388-1.5-4.468 0z" fill="url(#SVGID_145_)"/><path d="m253.043 189.808-10.861 15.093c-.564.783-.564 1.82 0 2.603l10.861 15.093c.946 1.315 2.967 1.315 3.913 0l10.861-15.093c.564-.783.564-1.82 0-2.603l-10.861-15.093c-.945-1.315-2.967-1.315-3.913 0z" fill="url(#SVGID_146_)"/><path d="m258.039 191.313c-.785-1.091-2.467-1.234-3.349-.215-.046.053-.09.109-.132.167l-10.107 14.045c-1.017 1.414-1.017 3.286 0 4.7l9.643 13.4c.985.387 2.192.119 2.862-.812l10.861-15.093c.564-.783.564-1.82 0-2.603z" fill="url(#SVGID_147_)"/></g><path d="m256.957 189.808c-.539-.749-1.428-1.07-2.268-.965v34.719c.84.105 1.728-.215 2.268-.965l10.861-15.093c.564-.783.564-1.82 0-2.603z" fill="url(#SVGID_148_)"/><path d="m253.043 222.598c.946 1.315 2.967 1.315 3.913 0l10.861-15.093c.282-.392.423-.847.423-1.302h-26.481c0 .455.141.91.423 1.302z" fill="url(#SVGID_149_)"/></g></g><g><g><g><g><path d="m145.312 250.297c8.059 9.072 18.089 14.554 26.988 15.613 1.147.137 2.167-.77 2.167-1.925-.003-8.961-4.265-19.569-12.323-28.64-8.059-9.072-18.089-14.554-26.988-15.613-1.147-.137-2.167.77-2.167 1.925.002 8.961 4.264 19.569 12.323 28.64z" fill="url(#SVGID_150_)"/><path d="m174.467 263.985c-.003-8.961-4.265-19.569-12.323-28.64-8.059-9.072-18.089-14.554-26.988-15.613-.574-.068-1.115.124-1.514.478l40.172 45.222c.398-.354.653-.869.653-1.447z" fill="url(#SVGID_151_)"/></g><g><path d="m153.179 240.62c4.017 11.45 11.22 20.326 19.053 24.68 1.01.561 2.297.11 2.735-.96 3.396-8.293 3.474-19.724-.543-31.174s-11.22-20.326-19.053-24.68c-1.01-.561-2.297-.11-2.735.96-3.395 8.293-3.474 19.724.543 31.174z" fill="url(#SVGID_152_)"/><path d="m174.967 264.341c3.396-8.293 3.474-19.724-.543-31.174s-11.22-20.326-19.053-24.68c-.505-.281-1.079-.308-1.582-.132l20.025 57.078c.503-.177.934-.557 1.153-1.092z" fill="url(#SVGID_153_)"/></g></g><g><g><circle cx="169.839" cy="260.482" fill="url(#SVGID_154_)" r="15.569"/><path d="m183.736 260.482c0 7.675-6.222 13.897-13.898 13.897-7.675 0-13.897-6.222-13.897-13.897s6.222-13.898 13.897-13.898c7.676 0 13.898 6.223 13.898 13.898z" fill="url(#SVGID_155_)"/><path d="m176.803 246.555c1.05 2.096 1.642 4.461 1.642 6.965 0 8.599-6.971 15.569-15.569 15.569-2.504 0-4.869-.592-6.965-1.642 2.556 5.102 7.832 8.605 13.927 8.605 8.599 0 15.569-6.971 15.569-15.569.001-6.096-3.502-11.372-8.604-13.928z" fill="url(#SVGID_156_)"/></g><path d="m180.366 253.819c0 3.995-4.713 7.234-10.528 7.234-5.814 0-10.527-3.239-10.527-7.234s4.713-7.234 10.527-7.234c5.815-.001 10.528 3.238 10.528 7.234z" fill="url(#SVGID_157_)"/></g></g><g><g><g><path d="m364.688 250.297c-8.059 9.072-18.089 14.554-26.988 15.613-1.147.137-2.167-.77-2.167-1.925.003-8.961 4.265-19.569 12.323-28.64 8.059-9.072 18.089-14.554 26.988-15.613 1.147-.137 2.167.77 2.167 1.925-.002 8.961-4.264 19.569-12.323 28.64z" fill="url(#SVGID_158_)"/><path d="m335.533 263.985c.003-8.961 4.265-19.569 12.323-28.64s18.089-14.554 26.988-15.613c.574-.068 1.115.124 1.514.478l-40.172 45.222c-.398-.354-.653-.869-.653-1.447z" fill="url(#SVGID_159_)"/></g><g><path d="m356.821 240.62c-4.017 11.45-11.22 20.326-19.053 24.68-1.01.561-2.297.11-2.735-.96-3.396-8.293-3.474-19.724.543-31.174s11.22-20.326 19.053-24.68c1.01-.561 2.297-.11 2.735.96 3.395 8.293 3.474 19.724-.543 31.174z" fill="url(#SVGID_160_)"/><path d="m335.033 264.341c-3.396-8.293-3.474-19.724.543-31.174s11.22-20.326 19.053-24.68c.505-.281 1.079-.308 1.582-.132l-20.025 57.078c-.503-.177-.934-.557-1.153-1.092z" fill="url(#SVGID_161_)"/></g></g><g><g><circle cx="340.161" cy="260.482" fill="url(#SVGID_162_)" r="15.569"/><path d="m354.059 260.482c0 7.675-6.222 13.897-13.898 13.897-7.675 0-13.897-6.222-13.897-13.897s6.222-13.898 13.897-13.898c7.676 0 13.898 6.223 13.898 13.898z" fill="url(#SVGID_163_)"/><path d="m347.126 246.555c1.05 2.096 1.642 4.461 1.642 6.965 0 8.599-6.971 15.569-15.569 15.569-2.504 0-4.869-.592-6.965-1.642 2.556 5.102 7.832 8.605 13.927 8.605 8.599 0 15.569-6.971 15.569-15.569.001-6.096-3.502-11.372-8.604-13.928z" fill="url(#SVGID_164_)"/></g><path d="m350.689 253.819c0 3.995-4.713 7.234-10.528 7.234-5.814 0-10.527-3.239-10.527-7.234s4.713-7.234 10.527-7.234c5.814-.001 10.528 3.238 10.528 7.234z" fill="url(#SVGID_165_)"/></g></g></g><g><g><circle cx="255" cy="273.758" fill="url(#SVGID_166_)" r="5.83"/><circle cx="255" cy="273.758" fill="url(#SVGID_167_)" r="4.865"/><path d="m257.608 268.543c.393.785.615 1.67.615 2.608 0 3.22-2.61 5.83-5.83 5.83-.937 0-1.823-.222-2.608-.615.957 1.91 2.933 3.222 5.215 3.222 3.22 0 5.83-2.61 5.83-5.83 0-2.282-1.312-4.258-3.222-5.215z" fill="url(#SVGID_168_)"/></g></g><g><g><g><path d="m168.978 382.427c-4.118-.123-7.586 3.771-7.746 8.698l-.902 51.191c-.151 4.647 2.864 9.012 6.701 9.698 4.905.878 9.349-3.753 9.304-9.696l-.184-51.175c-.037-4.761-3.194-8.597-7.173-8.716z" fill="url(#SVGID_169_)"/><path d="m139.885 379.575c-4.118-.128-7.586 3.928-7.746 9.061l-.902 53.326c-.151 4.841 2.865 9.388 6.701 10.103 4.905.915 9.349-3.91 9.303-10.1l-.184-53.31c-.037-4.96-3.193-8.956-7.172-9.08z" fill="url(#SVGID_170_)"/><path d="m125.334 386.815c-4.118-.123-7.586 3.771-7.746 8.697l-.898 46.886c-.151 4.647 2.865 9.011 6.701 9.698 4.905.878 9.349-3.753 9.304-9.695l-.188-46.871c-.038-4.76-3.194-8.596-7.173-8.715z" fill="url(#SVGID_171_)"/><path d="m154.44 370.381c-4.118-.128-7.586 3.928-7.746 9.061l-.911 62.492c-.151 4.841 2.864 9.388 6.701 10.103 4.905.915 9.349-3.91 9.303-10.1l-.176-62.476c-.036-4.96-3.192-8.956-7.171-9.08z" fill="url(#SVGID_172_)"/></g><path d="m171.89 436.1c-.055-.005-.11-.008-.163-.008.055.003.11.005.163.01z" fill="url(#SVGID_173_)"/><path d="m138.759 416.927h3.364 17.522c8.855 0 16.306 6.691 17.186 15.501.115 1.148.246 2.222.393 3.18.169 1.099.256 2.225.256 3.371v17.119.604l-.022.046c-.103 1.976-.672 3.902-1.672 5.617l-2.099 3.599c-1.867 3.201-2.85 6.84-2.85 10.545v29.872c0 1.998-1.62 3.618-3.618 3.618h-40.218c-1.998 0-3.619-1.62-3.619-3.619v-29.87c0-3.679-1.162-7.263-3.321-10.242-2.159-2.978-3.321-6.563-3.321-10.242v-17.082c.001-12.159 9.859-22.017 22.019-22.017z" fill="url(#SVGID_174_)"/><path d="m116.741 438.945v17.082c0 1.841.291 3.656.852 5.383.561 1.73 1.392 3.371 2.47 4.86 2.158 2.978 3.321 6.56 3.321 10.24v29.869c0 2 1.621 3.621 3.618 3.621h40.22c1.997 0 3.618-1.621 3.618-3.621v-29.872c0-3.694.978-7.321 2.834-10.516-1.755 3.009-4.976 4.86-8.46 4.86h-4.532c-3.621 0-6.898-1.468-9.271-3.841s-3.841-5.65-3.841-9.271c0-3.477 1.38-6.813 3.841-9.274l5.597-5.594c1.295-1.298 1.125-3.448-.361-4.525l-10.443-7.565c-2.323-1.683-3.606-4.34-3.606-7.068 0-.744.096-1.495.292-2.232.12-.452 4.753-4.554 4.753-4.554h-8.883c-12.161-.001-22.019 9.857-22.019 22.018z" fill="url(#SVGID_175_)"/><path d="m170.838 470.851 4.949-8.486c1.109-1.902 1.694-4.065 1.694-6.267v-17.119c0-4.618-2.559-8.857-6.645-11.008l-19.861-10.455c-2.82-1.484-6.307-.281-7.612 2.626-1.692 3.771-.506 8.212 2.841 10.637l10.443 7.566c1.486 1.077 1.657 3.227.359 4.525l-5.596 5.596c-2.459 2.459-3.841 5.794-3.841 9.272 0 7.242 5.871 13.112 13.112 13.112h10.157z" fill="url(#SVGID_176_)"/></g><path d="m123.383 481.785h47.456v21.157h-47.456z" fill="url(#SVGID_177_)"/><path d="m121.953 471.242h.614c.018.056.035.115.052.178 1.056 3.878 4.51 6.614 8.529 6.614h31.793c4.067 0 7.581-2.793 8.56-6.74.004-.018.009-.035.013-.052h1.218c4.153 0 7.52 3.367 7.52 7.52 0 4.153-3.367 7.52-7.52 7.52h-50.779c-4.153 0-7.52-3.367-7.52-7.52 0-4.153 3.367-7.52 7.52-7.52z" fill="url(#SVGID_178_)"/><path d="m170.839 501.394v4.985c0 2-1.621 3.621-3.618 3.621h-40.22c-1.997 0-3.618-1.621-3.618-3.621v-4.985z" fill="url(#SVGID_179_)"/><path d="m114.434 497.8c-.043 2.139.806 4.079 2.199 5.475 1.362 1.359 3.242 2.201 5.319 2.201h50.78c4.151 0 7.52-3.366 7.52-7.52 0-2.077-.841-3.957-2.204-5.319-1.362-1.359-3.242-2.201-5.316-2.201h-1.894c0 3.595-2.914 6.51-6.51 6.51h-34.437c-3.595 0-6.51-2.914-6.51-6.51h-1.279c-4.117-.001-7.585 3.247-7.668 7.364z" fill="url(#SVGID_180_)"/></g></g></g></svg>